<svg height="512pt" viewBox="-48 0 512 512" width="512pt" xmlns="http://www.w3.org/2000/svg"><path d="m312 80h-304c-4.414062 0-8 3.574219-8 8v416c0 4.425781 3.585938 8 8 8h304c4.414062 0 8-3.574219 8-8v-416c0-4.425781-3.585938-8-8-8zm-8 416h-288v-400h208.105469l.65625 48.703125c.175781 12.839844 10.765625 23.296875 23.613281 23.296875 13.023438 0 23.625-10.59375 23.625-23.617188v-32.382812h-16v32.382812c0 4.203126-3.414062 7.617188-7.625 7.617188-4.144531 0-7.558594-3.375-7.613281-7.511719l-.648438-48.488281h63.886719zm0 0"/><path d="m48 128h64v16h-64zm0 0"/><path d="m128 128h32v16h-32zm0 0"/><path d="m208 448h64v16h-64zm0 0"/><path d="m160 448h32v16h-32zm0 0"/><path d="m103.542969 244.230469-17.886719-17.886719-11.3125 11.3125 24 24c1.503906 1.503906 3.535156 2.34375 5.65625 2.34375.105469 0 .199219 0 .3125-.007812 2.222656-.089844 4.320312-1.097657 5.765625-2.792969l48-56-12.148437-10.40625zm0 0"/><path d="m56 288h80c4.414062 0 8-3.574219 8-8v-24h-16v16h-64v-64h48v-16h-56c-4.414062 0-8 3.574219-8 8v80c0 4.425781 3.585938 8 8 8zm0 0"/><path d="m103.542969 372.230469-17.886719-17.886719-11.3125 11.3125 24 24c1.503906 1.503906 3.535156 2.34375 5.65625 2.34375.105469 0 .199219 0 .3125-.007812 2.222656-.089844 4.320312-1.097657 5.765625-2.792969l48-56-12.148437-10.40625zm0 0"/><path d="m128 400h-64v-64h48v-16h-56c-4.414062 0-8 3.574219-8 8v80c0 4.425781 3.585938 8 8 8h80c4.414062 0 8-3.574219 8-8v-24h-16zm0 0"/><path d="m176 192h96v16h-96zm0 0"/><path d="m176 232h96v16h-96zm0 0"/><path d="m176 272h96v16h-96zm0 0"/><path d="m176 320h96v16h-96zm0 0"/><path d="m176 360h96v16h-96zm0 0"/><path d="m176 400h96v16h-96zm0 0"/><path d="m408 0h-288c-4.414062 0-8 3.574219-8 8v56h16v-48h272v432h-64v16h72c4.414062 0 8-3.574219 8-8v-448c0-4.425781-3.585938-8-8-8zm0 0"/><path d="m368 56c0-4.425781-3.585938-8-8-8h-200v16h192v104h-16v16h24c4.414062 0 8-3.574219 8-8zm0 0"/><path d="m336 208h32v16h-32zm0 0"/><path d="m336 256h32v16h-32zm0 0"/><path d="m336 304h32v16h-32zm0 0"/><path d="m336 352h32v16h-32zm0 0"/><path d="m336 400h32v16h-32zm0 0"/></svg>