<?xml version="1.0" standalone="no"?>
<!DOCTYPE svg PUBLIC "-//W3C//DTD SVG 20010904//EN"
 "http://www.w3.org/TR/2001/REC-SVG-20010904/DTD/svg10.dtd">
<svg version="1.0" xmlns="http://www.w3.org/2000/svg"
 width="1667.000000pt" height="1466.000000pt" viewBox="0 0 1667.000000 1466.000000"
 preserveAspectRatio="xMidYMid meet">

<g transform="translate(0.000000,1466.000000) scale(0.100000,-0.100000)"
fill="#000000" stroke="none">
<path d="M8808 14644 c-168 -17 -465 -67 -658 -110 -85 -19 -168 -36 -185 -37
-34 -4 -81 -15 -250 -58 -66 -17 -137 -34 -158 -40 -21 -5 -45 -14 -55 -19
-16 -9 -272 -99 -358 -126 -55 -17 -272 -113 -304 -134 -14 -9 -47 -28 -75
-42 -58 -28 -130 -68 -231 -127 -39 -22 -74 -41 -77 -41 -4 0 -31 -16 -62 -35
-30 -19 -65 -39 -77 -44 -41 -17 -303 -194 -420 -283 -62 -48 -158 -122 -213
-164 -55 -42 -112 -86 -126 -98 -14 -11 -36 -28 -49 -36 -20 -13 -57 -42 -121
-95 -10 -7 -48 -37 -85 -66 -74 -57 -106 -83 -204 -169 -35 -30 -82 -69 -104
-87 -23 -17 -90 -84 -151 -148 -60 -65 -176 -185 -256 -269 -207 -214 -449
-499 -449 -527 0 -5 -42 -56 -92 -115 -51 -58 -106 -123 -123 -143 -16 -20
-46 -53 -67 -74 -21 -21 -38 -40 -38 -43 0 -4 -35 -47 -61 -74 -29 -30 -161
-205 -167 -220 -3 -8 -10 -19 -14 -25 -23 -29 -208 -320 -208 -328 0 -3 -16
-29 -35 -58 -19 -30 -35 -61 -35 -69 0 -9 -4 -20 -9 -25 -22 -22 -210 -417
-245 -513 -7 -20 -27 -71 -43 -112 -28 -70 -45 -116 -95 -260 -11 -30 -39
-100 -63 -155 -50 -114 -108 -277 -159 -445 -19 -63 -43 -144 -54 -180 -11
-36 -43 -128 -72 -205 -29 -77 -65 -174 -80 -215 -15 -41 -40 -104 -55 -140
-67 -158 -135 -396 -169 -593 -9 -49 -21 -168 -27 -265 -5 -97 -16 -213 -22
-257 l-12 -80 -69 -7 c-179 -18 -346 -89 -404 -173 -18 -26 -39 -73 -48 -104
-8 -31 -45 -149 -81 -262 l-67 -206 -105 -111 c-58 -61 -142 -149 -186 -195
-44 -46 -118 -126 -165 -177 -156 -172 -223 -245 -286 -310 -34 -36 -91 -96
-126 -133 -60 -65 -99 -104 -406 -403 -93 -90 -140 -144 -157 -179 -15 -31
-37 -117 -56 -225 -32 -170 -33 -185 -35 -490 -3 -304 -2 -319 21 -425 14 -60
36 -162 50 -225 13 -63 38 -170 55 -238 16 -68 30 -132 30 -143 0 -11 21 -82
46 -157 46 -139 122 -294 179 -367 17 -22 38 -50 46 -61 8 -12 32 -48 55 -80
22 -33 76 -111 119 -174 109 -160 116 -168 331 -389 105 -108 215 -223 245
-256 141 -154 327 -328 461 -431 58 -44 204 -144 212 -144 2 0 61 -36 131 -80
70 -44 129 -80 133 -80 3 0 31 -17 61 -37 205 -135 264 -170 501 -295 144 -77
288 -148 299 -148 6 0 11 -4 11 -10 0 -5 6 -10 14 -10 8 0 45 -15 82 -34 38
-18 80 -37 94 -41 14 -3 57 -19 95 -35 39 -16 113 -40 165 -55 52 -14 142 -39
200 -56 58 -17 157 -45 220 -63 63 -19 169 -46 235 -61 66 -15 147 -33 180
-41 197 -45 403 -87 513 -104 70 -11 201 -32 292 -47 148 -25 190 -28 400 -28
l235 0 95 39 c52 21 133 57 180 78 141 65 693 342 708 356 7 6 20 12 28 12 8
0 50 20 94 45 44 25 81 45 83 45 3 0 38 20 79 45 42 25 80 45 87 45 6 0 11 4
11 8 0 5 19 19 43 32 55 30 386 249 411 272 11 10 25 18 30 18 6 0 30 15 53
33 22 17 54 40 70 49 15 10 69 43 118 74 50 31 104 64 120 72 17 9 32 18 35
21 6 7 31 20 188 101 149 75 284 138 316 146 14 3 30 12 37 20 6 8 15 14 20
14 10 0 208 86 339 147 41 19 138 60 215 90 77 30 156 63 175 73 19 10 51 24
70 33 50 22 200 98 231 116 15 9 53 31 85 50 195 115 444 300 564 421 99 98
280 312 280 330 0 5 20 10 45 10 47 0 61 5 265 90 69 29 148 61 175 71 28 11
61 25 75 33 14 7 54 23 90 36 36 12 79 28 95 35 17 8 81 34 143 59 63 26 131
55 152 66 22 11 44 20 50 20 6 0 95 41 198 91 103 51 221 108 262 127 41 20
100 48 131 63 185 92 521 223 794 309 50 15 108 36 129 45 39 16 42 16 130
-10 50 -15 95 -32 101 -36 5 -5 17 -9 28 -9 24 0 145 -64 235 -124 38 -25 74
-46 79 -46 4 0 24 -13 43 -28 19 -16 85 -58 145 -95 61 -36 151 -102 202 -145
51 -44 106 -85 124 -92 27 -12 59 -10 223 9 105 13 209 29 232 37 47 16 64 45
64 104 0 35 4 41 38 57 20 9 53 29 73 43 20 14 47 32 59 40 12 8 38 27 58 43
19 15 38 27 41 27 3 0 24 17 47 38 219 202 275 255 332 322 37 42 74 87 82 99
8 13 26 38 40 56 61 82 117 162 140 201 78 136 138 243 153 274 52 111 81 186
126 322 87 271 116 380 137 518 8 52 30 168 49 257 19 90 35 174 35 187 0 18
15 37 58 69 111 86 218 233 300 413 23 50 42 94 42 97 0 4 13 35 28 69 49 107
60 139 99 273 l37 130 0 220 1 220 -38 150 c-57 221 -57 221 -95 335 -19 58
-69 170 -110 250 -86 165 -162 318 -162 325 0 18 -134 219 -203 305 -74 91
-241 250 -356 338 -33 25 -203 103 -294 135 -42 15 -62 28 -72 48 -8 15 -31
135 -50 266 -78 529 -112 644 -314 1072 -56 117 -101 215 -101 216 0 16 -282
583 -345 695 -27 47 -58 103 -69 125 -12 22 -43 74 -70 115 -51 79 -94 147
-161 255 -54 89 -200 314 -223 345 -10 14 -67 97 -127 185 -59 88 -123 179
-141 202 -19 23 -34 44 -34 48 0 3 -33 49 -72 103 -99 131 -227 256 -387 377
-97 73 -338 278 -453 384 -9 9 -42 34 -73 56 -31 22 -112 85 -181 140 -175
140 -218 174 -229 183 -12 9 -301 152 -308 152 -3 0 -43 18 -89 39 -335 157
-646 252 -863 266 -109 7 -365 37 -650 75 -38 5 -176 12 -305 15 -274 7 -385
17 -568 51 -118 21 -159 24 -360 23 -125 -1 -284 -7 -354 -15z m347 -184 c-82
-22 -188 -47 -234 -55 -78 -14 -118 -24 -311 -76 -374 -100 -710 -209 -900
-291 -89 -38 -628 -303 -729 -358 -25 -14 -64 -37 -86 -51 -22 -15 -59 -38
-81 -50 -72 -41 -138 -81 -179 -108 -22 -14 -60 -36 -85 -49 -25 -14 -58 -34
-75 -47 -16 -12 -50 -32 -75 -45 -25 -12 -47 -26 -50 -30 -6 -7 -140 -98 -180
-120 -14 -8 -42 -26 -60 -40 -19 -14 -49 -34 -66 -45 -41 -26 -148 -100 -242
-167 -40 -29 -98 -71 -130 -93 -31 -21 -84 -60 -117 -85 -32 -25 -69 -52 -81
-60 -25 -17 -119 -97 -218 -184 -182 -162 -692 -666 -756 -749 -25 -32 -79
-97 -121 -145 -199 -228 -247 -304 -208 -328 7 -4 9 -22 5 -48 -28 -196 -36
-791 -13 -931 22 -130 50 -165 133 -165 21 0 74 -19 137 -50 99 -48 113 -56
169 -92 14 -10 33 -18 41 -18 9 0 17 -4 19 -8 2 -4 27 -18 56 -30 49 -21 55
-22 85 -7 35 17 100 103 111 147 7 29 47 83 251 336 66 82 136 171 155 196 19
26 44 57 55 69 11 12 45 53 75 92 71 90 182 215 300 340 52 55 116 122 141
150 59 64 226 241 264 280 56 57 223 240 243 265 18 22 228 231 271 270 50 44
119 98 138 108 12 7 27 18 35 24 7 7 42 33 78 58 36 24 74 52 84 62 11 10 25
18 32 18 7 0 14 3 16 8 3 8 145 102 154 102 3 0 20 11 37 24 18 13 50 33 72
43 22 11 72 37 110 58 39 21 120 63 180 95 61 31 119 61 130 67 11 6 38 19 60
30 59 30 174 92 225 122 72 43 554 281 568 281 8 0 44 13 80 29 60 26 109 45
292 109 355 125 658 192 1090 238 203 22 935 26 1080 6 204 -28 391 -51 514
-62 160 -15 515 -87 661 -134 103 -34 213 -75 400 -151 44 -18 98 -38 120 -45
22 -7 45 -16 50 -20 38 -27 152 -60 208 -60 44 0 70 -6 91 -19 75 -50 288
-261 319 -317 8 -14 6 -16 -9 -10 -40 16 -172 45 -249 56 -44 5 -170 12 -280
15 -196 4 -320 20 -650 79 -167 30 -324 38 -620 32 -501 -12 -811 -50 -1085
-133 -306 -94 -690 -248 -980 -394 -30 -15 -122 -57 -205 -94 -82 -37 -190
-85 -240 -108 -115 -53 -395 -196 -415 -212 -8 -6 -53 -33 -100 -59 -94 -51
-97 -53 -190 -113 -114 -74 -158 -105 -322 -228 -89 -66 -168 -124 -177 -130
-9 -5 -18 -13 -21 -16 -3 -3 -43 -36 -90 -74 -202 -164 -505 -418 -626 -525
-72 -63 -171 -149 -220 -192 -74 -63 -405 -391 -519 -514 -268 -290 -596 -695
-765 -944 -35 -52 -78 -115 -95 -140 -88 -129 -227 -384 -250 -460 -4 -14 -11
-27 -14 -30 -3 -3 -12 -23 -18 -45 -23 -77 -68 -200 -75 -203 -5 -2 -8 -12 -8
-22 0 -11 -9 -43 -21 -72 -12 -29 -34 -93 -49 -143 -16 -49 -40 -124 -54 -165
-31 -90 -66 -220 -94 -350 -69 -315 -98 -445 -137 -610 -45 -191 -103 -480
-130 -654 -9 -54 -25 -142 -35 -195 -11 -53 -24 -127 -30 -166 -5 -38 -21
-140 -34 -225 -44 -277 -65 -518 -81 -908 -18 -451 -19 -638 -4 -769 15 -136
20 -146 69 -141 l40 4 0 -61 c0 -33 3 -78 7 -100 l6 -40 -36 27 c-19 16 -60
45 -90 65 -122 84 -209 159 -342 295 -214 218 -260 269 -485 543 -68 83 -127
152 -132 153 -4 2 -8 8 -8 13 0 6 -4 15 -10 22 -50 63 -66 84 -75 98 -5 9 -41
61 -79 115 -37 55 -75 113 -83 129 -9 17 -19 32 -22 35 -4 3 -27 39 -51 80
-24 41 -54 89 -66 105 -11 17 -24 37 -28 45 -3 8 -20 38 -36 65 -17 28 -35 60
-40 72 -5 12 -21 40 -35 63 -14 22 -53 96 -86 163 -33 67 -71 142 -84 167 -13
25 -34 72 -48 105 -39 94 -92 214 -124 285 -17 36 -56 121 -88 190 -32 69 -61
130 -65 135 -41 54 -203 386 -226 465 -18 61 -58 146 -81 172 -10 11 -13 26
-9 42 3 13 13 104 21 203 16 187 51 411 66 428 5 5 9 20 9 35 0 33 82 266 160
455 34 83 70 175 82 205 11 30 30 78 43 105 13 28 35 86 50 130 15 44 40 116
56 160 15 44 48 143 73 220 42 130 131 358 170 433 9 17 32 76 50 130 88 252
110 302 239 564 48 97 87 181 87 186 0 4 13 29 30 55 16 26 30 53 30 59 0 6
16 33 35 59 19 27 35 51 35 54 0 8 83 138 97 153 7 7 13 17 13 22 0 8 87 149
108 175 4 6 27 35 50 65 23 30 52 68 64 84 13 17 81 95 152 175 71 80 162 191
202 246 205 281 215 293 508 599 280 292 315 327 412 412 118 103 342 285 430
349 15 11 65 49 110 85 46 36 133 103 194 150 61 47 128 99 147 117 20 17 49
37 64 44 16 6 29 15 29 19 0 13 261 181 370 238 30 15 98 53 150 83 119 69
126 73 175 97 22 11 54 27 70 36 90 49 242 116 261 116 13 0 25 3 28 8 2 4 44
20 93 36 48 17 126 44 173 62 195 73 294 98 705 178 311 60 523 93 685 106
186 15 217 16 360 18 l125 1 -150 -39z m986 -45 c86 -2 213 -14 282 -25 122
-19 312 -40 566 -61 121 -10 382 -68 469 -105 20 -8 64 -25 97 -36 60 -21 198
-82 310 -138 l60 -31 -45 6 c-122 16 -588 46 -850 55 -162 6 -333 15 -380 20
-261 30 -670 1 -945 -66 -169 -41 -575 -170 -835 -265 -166 -60 -358 -137
-485 -194 -27 -12 -67 -28 -87 -36 -21 -7 -38 -16 -38 -20 0 -3 -13 -9 -28
-12 -15 -3 -56 -22 -91 -41 -35 -20 -67 -36 -73 -36 -5 0 -42 -20 -81 -44 -40
-23 -88 -51 -107 -61 -19 -10 -37 -21 -40 -25 -3 -4 -20 -15 -38 -24 -18 -9
-67 -39 -109 -66 -41 -28 -81 -50 -88 -50 -8 0 -15 -4 -17 -8 -1 -5 -50 -34
-108 -64 -165 -87 -260 -138 -330 -178 -36 -20 -80 -46 -99 -56 -19 -10 -40
-22 -45 -27 -29 -20 -84 -55 -111 -69 -59 -30 -270 -165 -569 -364 -81 -54
-163 -108 -181 -119 -77 -46 -248 -184 -365 -293 -183 -172 -547 -539 -605
-611 -27 -34 -57 -70 -66 -80 -8 -9 -19 -24 -22 -32 -4 -8 -30 -43 -57 -79
-28 -36 -60 -80 -71 -97 -16 -24 -28 -33 -49 -33 -27 0 -230 98 -294 142 -83
57 -175 130 -210 166 l-39 41 89 98 c217 240 457 487 633 651 281 262 303 281
315 282 5 0 43 26 85 57 42 31 96 72 120 90 24 18 50 33 57 33 7 0 14 3 16 8
3 7 142 102 215 147 17 11 49 32 70 46 21 15 83 56 138 93 55 36 118 79 140
95 22 16 72 49 110 73 39 23 79 51 90 61 11 10 33 26 49 34 16 8 50 30 75 47
46 32 218 136 225 136 2 0 55 30 117 66 196 114 212 123 294 163 44 21 136 65
205 98 172 83 273 130 350 159 36 14 91 37 123 50 31 14 67 27 78 29 12 2 58
18 102 35 88 32 255 82 467 140 36 9 103 29 150 43 220 68 450 115 915 188
151 23 182 36 198 80 l11 28 91 -4 c49 -3 160 -7 246 -10z m1024 -559 c399 -8
713 -35 835 -72 48 -15 129 -30 185 -34 136 -11 199 -36 314 -122 109 -81 234
-188 227 -195 -2 -2 -23 5 -47 18 -63 32 -311 117 -409 140 -190 45 -384 76
-520 84 -125 7 -228 16 -510 46 -213 22 -610 26 -987 9 -589 -26 -773 -60
-1288 -233 -121 -41 -249 -87 -285 -102 -36 -15 -92 -38 -125 -50 -106 -40
-268 -105 -340 -135 -84 -36 -99 -38 -54 -7 39 27 446 230 529 265 153 64 529
182 770 241 19 5 62 16 94 25 86 24 390 72 611 97 220 25 442 36 640 32 77 -2
239 -5 360 -7z m-3050 -685 c-12 -11 -105 -51 -105 -46 0 3 21 16 48 29 48 26
74 33 57 17z m-490 -251 c-3 -5 -12 -10 -18 -10 -7 0 -6 4 3 10 19 12 23 12
15 0z m-90 -49 c-16 -10 -66 -39 -110 -65 -44 -26 -109 -65 -144 -87 -34 -21
-65 -39 -68 -39 -11 0 -230 -153 -299 -210 -17 -14 -41 -33 -53 -43 -12 -10
-77 -66 -144 -125 -67 -59 -167 -143 -222 -187 -126 -100 -533 -508 -615 -617
-31 -41 -277 -336 -348 -418 -132 -151 -174 -201 -355 -415 -23 -27 -69 -86
-102 -130 -33 -44 -62 -82 -65 -85 -3 -3 -28 -39 -55 -79 l-50 -75 -3 175 c-4
246 -1 264 58 341 27 35 64 86 83 113 19 28 41 56 50 64 10 7 17 18 17 23 0
20 182 241 274 334 34 34 68 70 77 80 8 10 57 57 109 104 51 47 139 127 194
179 109 102 319 280 364 308 15 9 42 30 60 45 18 15 49 37 70 48 20 11 57 36
82 55 25 18 48 34 52 34 7 1 36 20 145 93 23 15 46 28 52 28 6 0 11 4 11 8 0
5 21 21 48 36 26 15 81 49 122 76 41 27 98 62 125 78 52 29 124 73 209 126 69
44 439 244 451 245 6 0 -3 -8 -20 -18z m4632 -132 c171 -24 211 -38 108 -39
-115 0 -852 -39 -965 -51 -151 -15 -350 -47 -465 -74 -55 -13 -140 -33 -190
-44 -49 -11 -121 -32 -160 -47 -38 -15 -92 -33 -120 -40 -71 -18 -267 -91
-353 -131 -40 -18 -77 -33 -82 -33 -10 0 -363 -172 -465 -226 -27 -14 -59 -31
-70 -37 -11 -6 -65 -35 -120 -65 -55 -30 -123 -67 -151 -82 -28 -15 -65 -37
-82 -48 -16 -12 -56 -37 -89 -56 -32 -18 -119 -68 -193 -111 -74 -43 -159 -92
-188 -108 -50 -28 -255 -163 -350 -231 -91 -65 -471 -370 -545 -436 -17 -16
-81 -71 -142 -122 -60 -50 -112 -95 -115 -98 -3 -4 -57 -53 -120 -110 -157
-141 -420 -413 -470 -486 -8 -12 -62 -79 -120 -149 -58 -70 -109 -135 -115
-143 -5 -9 -27 -38 -47 -65 -21 -27 -38 -55 -38 -63 0 -8 -4 -14 -8 -14 -7 0
-128 -163 -157 -212 -5 -9 -37 -55 -70 -102 -33 -48 -71 -104 -85 -125 -14
-21 -38 -58 -54 -82 -16 -24 -49 -75 -74 -114 -25 -38 -78 -119 -117 -180
-135 -207 -162 -250 -185 -297 -13 -27 -27 -48 -32 -48 -4 0 -8 -4 -8 -9 0 -5
-16 -38 -37 -73 -20 -34 -52 -92 -70 -127 -19 -34 -44 -79 -57 -100 -41 -67
-168 -335 -211 -446 -68 -177 -150 -422 -180 -535 -15 -58 -31 -116 -35 -130
-5 -14 -23 -92 -39 -175 -41 -201 -77 -370 -105 -485 -40 -162 -74 -363 -111
-650 -9 -69 -23 -168 -31 -220 -30 -183 -44 -388 -54 -735 -5 -192 -14 -411
-21 -485 -7 -74 -13 -156 -13 -182 -1 -32 -6 -50 -18 -57 -9 -6 -19 -7 -22 -3
-15 25 -16 255 -2 487 23 373 35 531 45 600 5 33 12 94 16 135 9 108 32 283
60 450 13 80 29 179 36 220 12 76 14 93 44 255 9 50 25 144 36 210 19 117 48
283 70 395 5 30 21 98 34 150 33 137 52 228 75 370 12 69 27 150 35 180 8 30
19 84 24 120 6 36 27 115 46 175 19 61 47 148 61 195 15 47 30 94 35 105 11
29 77 218 104 300 12 39 33 93 45 120 13 28 26 59 30 70 16 46 67 143 115 220
51 83 71 113 97 152 15 23 28 46 28 51 0 6 4 12 8 14 7 3 65 84 97 136 6 9 27
39 47 67 21 27 50 67 65 88 16 20 53 68 83 105 30 38 69 86 85 107 17 21 46
57 66 79 19 23 46 55 60 72 152 196 529 591 774 812 83 75 152 138 155 141 3
4 23 19 45 36 22 16 42 32 45 36 3 4 25 23 50 44 25 20 68 57 95 80 115 100
273 233 320 270 28 22 69 55 92 75 90 77 272 220 353 278 25 18 79 57 120 87
41 30 95 67 120 82 25 15 58 37 73 50 16 13 33 23 39 23 6 0 31 15 57 33 25
18 53 36 61 40 8 4 35 19 60 33 90 52 526 272 580 292 30 11 102 43 160 70
178 84 240 112 245 112 3 0 38 15 77 34 122 57 256 116 263 116 3 0 53 20 109
45 57 25 109 45 116 45 7 0 58 17 114 39 222 85 403 133 626 166 157 24 320
32 688 33 267 2 333 -1 459 -19z m1097 -119 c221 -49 359 -109 459 -200 37
-34 67 -66 67 -71 0 -5 20 -35 45 -67 25 -31 45 -61 45 -65 0 -5 15 -27 33
-50 19 -23 56 -77 83 -120 27 -42 60 -94 73 -114 l23 -36 -29 21 c-54 38 -250
227 -324 312 -41 46 -94 104 -119 127 -108 104 -262 191 -445 252 -86 28 -88
30 -46 30 24 1 85 -8 135 -19z m-414 -123 c52 -14 131 -35 175 -46 104 -27
140 -41 275 -105 135 -63 151 -76 340 -266 74 -75 222 -214 328 -309 105 -95
206 -190 222 -211 39 -49 89 -80 128 -80 35 0 23 19 168 -266 139 -274 374
-783 374 -810 0 -5 13 -41 30 -80 59 -140 113 -377 139 -609 43 -379 45 -420
31 -478 -10 -44 -10 -88 0 -243 8 -104 14 -283 14 -399 0 -196 -2 -217 -27
-317 -34 -134 -40 -197 -30 -323 5 -60 4 -112 -1 -128 -8 -21 -4 -37 17 -79
15 -29 28 -64 29 -78 7 -85 -175 -210 -306 -210 -29 0 -73 7 -97 16 -62 23
-170 33 -244 24 -47 -6 -97 -25 -201 -75 -154 -75 -351 -165 -360 -165 -3 0
-30 -11 -60 -25 -30 -14 -82 -37 -117 -51 -79 -33 -221 -104 -362 -181 -60
-33 -173 -93 -250 -133 -180 -94 -366 -197 -540 -300 -55 -33 -103 -60 -106
-60 -4 0 -37 -18 -74 -40 -36 -23 -76 -45 -88 -49 -12 -5 -76 -40 -142 -78
-66 -38 -133 -77 -150 -86 -57 -31 -430 -209 -500 -239 -38 -16 -79 -35 -90
-42 -11 -7 -67 -30 -125 -51 -58 -21 -109 -41 -115 -46 -13 -9 -181 -71 -265
-97 -164 -51 -518 -135 -573 -137 -44 -1 -52 -5 -83 -41 -42 -49 -50 -75 -35
-124 17 -57 14 -123 -7 -140 -9 -8 -50 -37 -89 -63 -40 -26 -78 -54 -85 -61
-8 -7 -31 -25 -53 -40 -72 -48 -105 -74 -295 -231 -97 -80 -110 -90 -320 -244
-14 -10 -52 -36 -85 -57 -33 -21 -73 -51 -89 -66 -17 -15 -41 -33 -55 -40 -14
-7 -34 -22 -46 -33 -27 -25 -43 -38 -130 -104 -39 -29 -110 -82 -159 -119 -48
-37 -94 -73 -101 -80 -8 -6 -16 -12 -20 -12 -6 0 -50 -34 -135 -105 -26 -22
-58 -49 -71 -59 -30 -25 -182 -158 -189 -165 -13 -16 -91 -60 -140 -79 -87
-34 -140 -41 -374 -50 -210 -9 -220 -8 -239 11 -13 13 -29 18 -52 15 -25 -3
-35 0 -38 13 -3 9 -17 25 -33 35 -37 24 -194 24 -484 0 -113 -9 -258 -21 -322
-26 -64 -6 -214 -10 -333 -10 l-216 0 -217 46 c-119 25 -260 52 -312 60 -122
18 -255 54 -350 94 -41 17 -118 50 -171 71 l-96 40 -6 87 c-3 48 -1 152 4 232
4 80 13 235 18 345 10 191 61 682 81 769 15 66 58 335 65 406 8 77 82 439 124
606 16 66 35 148 41 184 45 257 173 693 289 984 73 182 326 672 417 806 13 19
24 38 24 43 0 9 49 86 68 105 7 8 20 28 29 45 9 18 44 75 78 127 34 52 92 142
129 200 234 364 545 791 738 1012 52 60 272 281 365 368 57 53 298 260 403
345 40 33 110 93 155 133 45 39 87 72 93 72 5 0 16 8 23 17 15 18 138 113 198
152 20 13 50 36 67 50 46 39 79 62 142 101 31 19 73 47 92 61 19 14 42 29 50
32 8 4 44 25 79 47 34 22 65 40 68 40 3 0 42 22 87 48 44 26 101 58 126 71 25
13 52 30 61 37 8 8 19 14 23 14 4 0 32 16 62 35 30 19 57 35 59 35 3 0 36 20
75 45 39 25 74 45 79 45 6 0 31 13 58 29 100 60 504 266 653 334 268 120 705
250 1037 307 312 54 792 79 1433 74 278 -2 300 -4 390 -27z m-8425 -1397 c68
-55 216 -143 283 -170 26 -10 32 -17 28 -34 -22 -92 -28 -223 -22 -484 l6
-283 -23 12 c-12 7 -41 25 -64 40 -23 16 -46 29 -52 29 -6 0 -25 13 -43 28
-18 15 -51 39 -73 53 -22 15 -62 46 -88 70 l-48 44 -4 374 c-2 206 -2 378 1
383 7 11 15 6 99 -62z m11014 -2067 c79 -43 127 -78 189 -138 l83 -80 -10
-105 c-6 -58 -15 -190 -21 -295 -9 -176 -8 -197 11 -289 11 -55 25 -108 30
-118 8 -15 5 -20 -16 -28 -15 -6 -35 -10 -46 -10 -11 0 -48 -6 -82 -14 -80
-19 -234 -45 -319 -55 -81 -9 -78 -14 -78 145 0 76 7 144 21 210 25 117 28
288 10 544 -6 91 -13 186 -15 213 l-3 47 37 0 c20 0 45 7 56 15 10 8 25 15 33
15 8 0 62 -26 120 -57z m507 -478 c51 -67 88 -131 178 -308 41 -81 84 -160 94
-175 45 -62 113 -216 150 -337 117 -381 148 -561 123 -711 -18 -105 -78 -306
-116 -391 -19 -41 -35 -80 -35 -86 0 -19 -94 -202 -138 -266 -88 -133 -207
-235 -346 -301 -94 -44 -339 -129 -388 -135 -344 -39 -461 -57 -678 -107 -183
-41 -274 -74 -415 -147 -323 -168 -404 -210 -455 -238 -66 -36 -192 -107 -239
-136 -61 -37 -23 0 62 59 129 91 362 244 372 244 3 0 30 18 60 40 30 22 57 40
61 40 3 0 27 15 53 34 25 19 62 43 81 54 19 10 82 48 140 84 186 114 463 221
632 243 104 13 139 31 154 78 4 12 23 42 43 68 20 26 46 63 59 81 12 18 38 56
57 83 20 28 41 61 48 75 22 46 208 338 238 373 5 7 18 24 30 40 11 15 29 27
40 27 31 0 92 35 116 67 11 16 26 47 32 69 16 59 13 244 -9 494 -10 124 -20
286 -21 360 -1 74 -6 145 -10 156 -4 12 -17 75 -29 140 -21 118 -21 120 -4
301 10 100 19 181 20 180 1 -1 19 -24 40 -52z m-183 -812 c3 -54 17 -208 31
-343 31 -290 33 -372 10 -391 -20 -16 -29 -3 -45 66 -6 27 -31 131 -55 230
-24 99 -48 222 -54 274 -6 52 -18 126 -26 164 -18 78 -14 86 41 88 17 0 41 4
55 8 14 5 28 6 31 5 4 -2 9 -47 12 -101z m-303 22 c0 -14 -4 -25 -9 -25 -19 0
-92 -126 -197 -340 -244 -499 -297 -612 -345 -740 -49 -129 -58 -147 -77 -155
-8 -3 -80 -12 -160 -21 -79 -8 -167 -19 -195 -25 -28 -5 -52 -8 -53 -6 -2 2
-8 45 -14 97 -6 51 -19 133 -30 182 -11 49 -22 141 -26 206 -8 143 -17 162
-77 162 -39 0 -46 4 -82 50 -22 28 -41 54 -43 58 -4 13 216 112 275 125 43 9
61 8 110 -7 199 -60 191 -59 269 -47 71 10 191 50 216 70 7 6 33 27 58 47 60
48 127 131 141 173 7 19 9 68 7 111 l-5 78 81 14 c45 9 98 16 119 17 33 1 37
-2 37 -24z m98 -520 c16 -66 33 -145 37 -175 4 -30 13 -78 21 -106 l15 -52
-76 -108 c-41 -60 -81 -120 -88 -134 -32 -67 -224 -379 -255 -416 -14 -17 -34
-22 -98 -27 -118 -9 -361 -96 -579 -206 -78 -39 -80 -40 -88 -19 -4 12 -7 72
-6 134 1 95 4 114 18 118 9 3 77 16 151 30 219 40 330 66 355 82 26 17 36 45
29 83 -4 20 39 115 178 392 181 363 259 526 258 543 0 4 17 36 37 69 l37 62
12 -75 c7 -41 26 -129 42 -195z m-13406 -117 c-38 -41 -59 -89 -73 -171 -54
-328 -57 -366 -64 -692 -3 -176 -11 -367 -17 -425 -14 -141 -13 -615 1 -770 7
-74 17 -133 26 -146 20 -31 51 -39 79 -20 22 14 24 24 30 128 3 62 10 205 16
318 5 113 21 291 35 395 19 146 27 270 35 535 8 265 15 375 31 475 12 72 22
131 24 133 4 4 265 -523 265 -534 0 -4 22 -57 49 -118 27 -61 74 -169 106
-241 98 -225 252 -526 321 -631 19 -28 34 -54 34 -58 0 -9 75 -126 168 -260
26 -37 63 -92 82 -120 45 -68 97 -139 138 -190 82 -103 132 -164 192 -235 36
-42 74 -88 85 -102 49 -66 212 -246 340 -378 128 -130 324 -311 339 -311 3 0
49 -30 103 -67 230 -156 275 -183 314 -183 l22 0 -7 -442 c-4 -244 -11 -471
-14 -506 l-7 -62 -120 61 c-66 33 -127 67 -135 74 -17 15 -268 165 -276 165
-3 0 -17 8 -32 19 -67 46 -178 118 -192 124 -8 4 -49 31 -90 61 -41 30 -93 67
-115 83 -37 26 -190 138 -260 190 -16 12 -48 35 -70 50 -22 15 -44 33 -50 40
-5 6 -40 34 -77 61 -69 52 -207 160 -353 277 -106 84 -235 197 -235 206 0 5
-6 9 -12 9 -13 0 -194 174 -252 241 -125 145 -216 300 -302 513 -29 73 -66
137 -106 181 -33 38 -104 65 -172 65 -50 0 -100 29 -121 70 -43 84 -69 579
-71 1376 0 281 -4 522 -7 535 -6 24 26 141 50 185 24 42 240 122 332 123 l45
1 -32 -32z m11747 -80 c17 -39 25 -46 90 -72 59 -24 70 -31 59 -42 -16 -15
-201 -168 -253 -209 -21 -16 -68 -50 -104 -75 -36 -25 -67 -48 -69 -52 -2 -5
-9 -8 -15 -8 -7 0 -42 -20 -79 -45 -37 -25 -70 -45 -73 -45 -3 0 -29 -15 -58
-33 -29 -18 -63 -38 -77 -45 -14 -7 -58 -32 -98 -57 -41 -25 -80 -45 -87 -45
-8 0 -16 -4 -19 -9 -8 -12 -397 -201 -414 -201 -13 0 -626 -311 -642 -325 -9
-8 -21 -15 -26 -15 -6 0 -115 -53 -244 -118 -129 -64 -255 -126 -280 -138 -25
-11 -103 -50 -175 -86 -71 -36 -141 -69 -155 -73 -14 -4 -27 -11 -30 -14 -18
-25 -270 -107 -280 -91 -11 17 -62 30 -99 24 -30 -5 -56 3 -141 40 -122 54
-155 71 -187 100 -14 12 -39 23 -56 26 -28 5 -21 9 63 37 52 18 131 39 175 48
44 9 123 31 175 47 52 17 104 32 115 33 11 1 92 30 180 65 88 34 187 72 220
85 33 12 89 35 125 52 36 16 160 74 275 128 237 110 361 174 517 263 60 34
110 62 113 62 3 0 58 30 123 67 64 37 135 77 157 89 22 12 102 58 179 103 76
44 140 81 143 81 2 0 27 15 56 33 29 18 68 39 87 47 19 7 46 21 60 30 14 9 41
23 60 30 19 7 60 28 90 46 158 92 237 135 355 192 72 34 150 73 175 87 25 13
46 24 48 24 1 1 11 -18 21 -41z m325 -325 c9 -60 19 -153 22 -208 l6 -100 -31
-13 c-29 -13 -31 -17 -31 -65 0 -70 10 -83 68 -86 8 -1 12 -22 12 -71 0 -38 4
-91 9 -117 5 -26 12 -78 14 -114 l4 -65 -71 -44 c-89 -54 -179 -113 -186 -120
-3 -3 -18 -12 -35 -20 -16 -8 -66 -39 -110 -68 -44 -29 -87 -57 -95 -63 -16
-10 -98 -67 -201 -138 -35 -25 -89 -63 -119 -86 -149 -112 -196 -142 -400
-248 -47 -24 -98 -51 -115 -60 -71 -39 -618 -302 -720 -347 -27 -12 -221 -107
-430 -211 -210 -104 -388 -189 -398 -189 -9 0 -17 -4 -17 -10 0 -5 -5 -10 -11
-10 -5 0 -34 -11 -62 -24 -29 -13 -74 -34 -102 -45 -27 -12 -57 -28 -66 -37
-13 -11 -185 -104 -194 -104 -1 0 -5 28 -9 63 -3 34 -15 116 -25 182 -18 114
-42 514 -41 707 l0 87 33 15 c17 8 89 33 160 55 70 22 151 53 179 67 28 14 68
32 87 39 20 7 70 28 111 48 41 19 118 53 170 76 52 23 122 55 155 71 33 16 83
38 111 49 53 20 100 42 359 166 252 120 350 165 357 165 4 0 40 15 80 34 157
73 230 106 235 106 6 0 219 97 273 125 202 104 394 221 614 376 79 55 274 226
360 315 12 12 24 22 27 23 3 1 14 -47 23 -106z m-12604 -1068 c11 -465 25
-651 55 -742 37 -113 121 -176 250 -189 39 -3 80 -13 93 -21 14 -9 60 -89 123
-216 171 -345 247 -446 550 -728 156 -144 223 -203 364 -315 33 -27 89 -73
125 -104 36 -30 83 -68 105 -85 38 -29 247 -194 332 -262 23 -18 45 -33 49
-33 4 0 18 -9 30 -21 13 -12 43 -35 67 -53 25 -17 83 -59 130 -93 47 -34 103
-71 124 -83 21 -11 52 -31 69 -43 29 -20 90 -59 154 -97 14 -8 78 -50 143 -94
104 -68 197 -117 343 -180 34 -15 44 -25 53 -57 13 -44 51 -69 143 -93 29 -8
85 -26 123 -41 267 -102 322 -115 781 -179 140 -20 285 -46 330 -60 121 -37
170 -45 331 -52 214 -10 282 4 641 124 l134 45 81 81 c45 45 93 102 106 127
40 75 93 91 402 119 58 5 174 26 260 48 85 22 235 58 334 82 254 61 511 128
572 150 101 37 303 139 350 176 71 57 217 187 313 280 148 143 192 184 310
288 152 133 160 140 412 323 62 45 155 120 207 168 92 84 96 86 130 78 20 -4
72 -8 116 -8 72 0 88 4 160 38 44 21 91 44 105 52 14 8 50 27 80 42 30 15 57
30 60 33 8 8 92 48 135 63 65 24 312 134 430 192 203 100 421 202 446 210 13
4 62 25 107 46 46 22 88 39 94 39 9 0 162 69 201 91 26 14 67 29 67 24 0 -2
-21 -14 -47 -27 -27 -12 -67 -35 -90 -50 -23 -15 -52 -33 -65 -38 -13 -6 -36
-19 -53 -30 -16 -11 -57 -33 -90 -50 -33 -17 -67 -38 -76 -46 -8 -8 -20 -14
-25 -14 -6 0 -37 -16 -70 -36 -32 -20 -102 -58 -154 -86 -52 -28 -100 -55
-107 -60 -6 -5 -46 -27 -88 -48 -42 -21 -82 -43 -88 -48 -7 -6 -29 -19 -49
-31 -83 -46 -106 -60 -168 -99 -71 -45 -87 -56 -206 -140 -45 -31 -92 -64
-104 -72 -13 -8 -35 -24 -49 -36 -14 -11 -33 -25 -42 -30 -15 -8 -98 -81 -239
-210 -151 -138 -438 -451 -555 -604 -27 -36 -52 -67 -55 -70 -3 -3 -17 -21
-31 -40 -15 -19 -39 -48 -54 -65 -14 -16 -47 -56 -71 -87 -72 -92 -207 -213
-359 -320 -174 -123 -211 -149 -250 -169 -22 -12 -42 -25 -45 -28 -8 -10 -136
-78 -240 -127 -52 -24 -112 -53 -133 -64 -22 -11 -43 -20 -49 -20 -5 0 -62
-23 -126 -51 -64 -28 -148 -64 -187 -81 -38 -16 -95 -41 -125 -55 -30 -14
-113 -52 -185 -85 -71 -32 -157 -72 -190 -88 -33 -16 -89 -43 -125 -59 -96
-44 -307 -158 -360 -196 -25 -18 -55 -35 -67 -39 -11 -3 -45 -25 -76 -49 -31
-23 -85 -60 -119 -82 -35 -22 -108 -72 -163 -111 -55 -40 -114 -80 -131 -90
-18 -11 -77 -49 -133 -86 -55 -38 -105 -68 -111 -68 -5 0 -10 -5 -10 -11 0 -5
-4 -7 -10 -4 -5 3 -10 2 -10 -3 0 -5 -8 -12 -17 -16 -10 -3 -25 -10 -33 -16
-39 -26 -140 -81 -300 -163 -199 -102 -302 -157 -410 -217 -77 -43 -363 -180
-473 -226 -121 -52 -384 -43 -742 23 -104 19 -235 43 -290 53 -55 10 -128 25
-162 34 -35 9 -86 21 -115 26 -75 14 -389 94 -548 140 -475 136 -470 135 -685
222 -108 44 -581 289 -680 353 -32 20 -67 41 -79 46 -12 5 -55 31 -96 58 -41
28 -138 88 -215 136 -77 47 -149 91 -160 98 -19 12 -133 86 -181 118 -80 53
-320 279 -445 419 -56 63 -173 185 -258 270 -86 86 -172 174 -191 195 -27 31
-147 196 -230 315 -5 8 -41 58 -78 110 -38 52 -77 111 -88 130 -10 19 -27 45
-36 58 -28 38 -98 230 -120 327 -45 203 -61 278 -94 435 -19 91 -42 197 -51
235 -15 59 -18 122 -17 395 0 286 2 340 21 448 13 76 29 135 43 157 11 18 64
74 117 122 54 48 105 96 115 106 10 9 22 17 28 17 5 0 10 7 10 15 0 8 4 15 10
15 10 0 169 162 276 281 32 36 100 110 150 165 50 54 130 144 179 199 48 55
129 143 179 195 101 104 161 168 251 264 l60 64 2 -151 c1 -84 7 -363 13 -622z
m14248 65 c-12 -47 -22 -87 -24 -89 -2 -2 -15 6 -30 18 -32 25 -81 27 -110 3
-53 -43 -73 -195 -33 -246 18 -22 28 -26 75 -26 48 0 55 -2 50 -17 -3 -10 -15
-58 -27 -108 -91 -387 -175 -586 -382 -898 -54 -82 -107 -157 -118 -168 -10
-10 -19 -23 -19 -29 0 -17 -363 -374 -451 -443 -48 -37 -91 -67 -97 -67 -6 0
-12 -4 -14 -8 -1 -4 -40 -27 -85 -50 -79 -41 -83 -42 -115 -28 -18 8 -58 35
-88 61 -215 180 -291 235 -445 317 -88 47 -207 106 -265 132 -58 26 -127 58
-155 71 -27 12 -85 35 -128 50 -68 25 -79 31 -84 56 -9 47 -46 73 -101 72 -27
0 -63 -8 -80 -17 -17 -9 -44 -16 -59 -16 -19 0 -39 -11 -60 -33 -23 -25 -67
-48 -165 -86 -73 -29 -167 -66 -208 -83 -41 -17 -92 -37 -114 -45 -21 -7 -72
-29 -113 -48 -40 -19 -77 -35 -81 -35 -5 0 -36 -13 -70 -30 -68 -33 -107 -47
-512 -187 -151 -52 -300 -104 -330 -114 -30 -11 -93 -35 -140 -53 -136 -55
-143 -55 -85 -2 28 25 54 46 58 46 4 0 29 19 55 43 26 23 70 58 97 77 28 19
56 40 62 46 7 7 26 18 43 26 16 7 30 16 30 20 0 4 19 17 43 29 23 12 51 29 62
39 11 10 46 32 77 49 32 17 77 45 102 61 24 17 47 30 50 30 4 0 23 11 44 23
20 13 68 41 106 62 39 21 85 49 104 62 19 12 39 23 44 23 6 0 35 15 66 34 32
19 151 87 266 152 115 65 228 128 250 141 23 12 88 47 146 76 122 63 114 59
335 168 94 46 203 103 243 126 41 24 76 43 78 43 6 0 135 72 189 105 22 14 51
30 65 37 14 7 55 32 92 55 36 24 70 43 74 43 4 0 38 18 76 40 39 22 75 40 81
40 6 0 18 6 26 14 9 8 45 30 81 49 36 19 81 43 100 54 19 11 80 44 134 73 l99
53 -6 -34 c-4 -19 -9 -65 -13 -102 -6 -62 -4 -74 21 -127 33 -68 62 -86 140
-84 67 1 142 30 261 99 54 32 112 65 128 74 17 9 35 20 40 24 6 4 40 30 76 58
36 27 85 65 110 84 48 36 97 87 142 148 16 21 37 37 48 37 21 0 309 93 338
109 9 5 18 9 19 7 1 -1 -8 -40 -19 -86z m-5311 -576 c32 -14 43 -25 43 -41 0
-12 8 -30 19 -40 17 -16 20 -46 30 -343 11 -312 24 -444 55 -558 14 -51 14
-53 -5 -47 -34 11 -79 -6 -114 -42 l-34 -35 -10 39 c-5 21 -17 115 -26 208
-19 207 -45 403 -84 635 -16 96 -32 203 -35 237 l-7 61 63 -27 c35 -15 82 -37
105 -47z m-317 -19 c5 -6 14 -80 20 -165 15 -211 39 -496 51 -605 5 -49 13
-147 19 -217 11 -145 26 -194 64 -204 46 -11 52 -5 -200 -197 -109 -83 -205
-161 -289 -236 -38 -34 -74 -65 -80 -70 -5 -4 -92 -92 -192 -194 -101 -103
-184 -187 -185 -187 -2 0 -34 -30 -73 -66 -119 -113 -210 -170 -340 -215 -22
-7 -44 -16 -50 -20 -11 -7 -240 -72 -340 -96 -86 -20 -404 -102 -440 -113
-148 -45 -523 -119 -607 -120 -22 0 -41 86 -73 332 -13 106 -33 254 -44 328
-19 132 -41 338 -41 391 0 26 3 28 88 43 48 8 170 20 272 26 102 6 212 17 245
25 93 21 192 72 275 138 41 33 111 90 155 125 44 36 85 70 90 76 18 19 107 89
190 148 44 32 88 64 97 70 9 7 43 31 74 53 31 22 121 90 199 150 78 61 164
126 191 145 104 76 196 140 200 140 3 0 84 66 180 148 232 194 393 321 503
394 25 17 26 17 30 0 2 -9 7 -22 11 -27z m2960 -1061 c0 -2 -15 -4 -32 -4 -23
0 -29 3 -19 9 12 8 51 4 51 -5z m-8171 -279 c99 -38 181 -63 274 -80 72 -14
177 -35 232 -46 55 -11 132 -26 170 -34 39 -7 90 -20 115 -28 87 -30 243 -47
421 -47 185 0 485 20 672 45 61 8 139 18 172 22 l60 6 -34 -39 c-19 -21 -73
-83 -120 -137 -49 -56 -95 -100 -110 -104 -24 -6 -167 -3 -726 16 -610 21
-615 22 -1060 179 -186 65 -187 66 -206 142 -24 96 -29 160 -14 160 7 0 77
-25 154 -55z m8836 -30 c33 -19 70 -39 83 -45 31 -13 116 -72 120 -82 2 -4 8
-8 13 -8 7 0 112 -76 188 -137 2 -2 -4 -3 -15 -3 -11 0 -57 30 -104 68 -79 63
-180 131 -309 209 -73 44 -53 42 24 -2z m-2250 -301 c-115 -58 -335 -154 -352
-154 -7 0 -13 -4 -13 -9 0 -5 -10 -11 -22 -14 -30 -7 -234 -92 -375 -155 -62
-28 -113 -49 -113 -47 0 1 15 12 33 23 17 11 59 37 92 57 94 58 219 118 355
169 69 26 154 59 190 73 96 39 273 102 285 102 6 0 -30 -20 -80 -45z m-6575
-24 c41 -17 89 -37 107 -45 17 -8 36 -15 42 -15 6 0 49 -16 96 -35 47 -20 107
-40 133 -46 185 -39 340 -61 482 -69 91 -5 248 -14 350 -20 102 -6 239 -14
305 -20 66 -5 183 -12 260 -15 77 -4 141 -8 143 -10 12 -11 30 -256 47 -610
10 -221 17 -301 30 -355 8 -30 13 -55 12 -56 -1 -1 -65 -17 -142 -35 -115 -26
-167 -33 -295 -36 -148 -5 -163 -3 -330 31 -155 31 -203 37 -418 46 -353 15
-445 31 -682 115 -58 20 -121 41 -140 47 -19 6 -50 26 -69 47 -41 43 -39 13
-28 431 5 173 8 397 7 498 -1 100 2 182 6 182 5 0 43 -14 84 -30z m2271 -132
c23 -263 49 -879 38 -899 -4 -9 -22 -22 -39 -29 -22 -9 -33 -22 -40 -49 -5
-20 -27 -56 -47 -79 l-38 -44 -3 74 c-2 40 -14 154 -27 253 -14 99 -29 230
-34 290 -6 61 -16 168 -22 239 l-12 130 24 15 c13 9 33 26 44 37 31 33 108
125 124 146 7 11 15 17 18 14 3 -3 9 -47 14 -98z"/>
<path d="M15518 5288 c-59 -39 -67 -68 -37 -133 26 -55 55 -69 117 -60 38 6
46 11 58 40 14 35 19 111 8 140 -7 19 -55 45 -81 45 -10 0 -39 -15 -65 -32z"/>
<path d="M15297 5064 c-62 -33 -103 -67 -119 -97 -21 -39 -23 -106 -4 -151 18
-44 82 -62 152 -45 67 17 88 57 100 196 6 63 4 76 -11 93 -22 24 -77 26 -118
4z"/>
<path d="M14970 4762 c-33 -10 -50 -46 -50 -105 0 -104 61 -150 157 -117 72
26 88 167 22 208 -25 16 -97 23 -129 14z"/>
</g>
</svg>
