<svg id="Layer_1" data-name="Layer 1" xmlns="http://www.w3.org/2000/svg" viewBox="0 0 410.15 508.84"><defs><style>.cls-1{fill:#5f9f47;}</style></defs><title>aust map 2</title><path class="cls-1" d="M641.46,675.37a1.88,1.88,0,0,1-.69-.17,2.54,2.54,0,0,0-.56-.17l-.13-.34c-.12-.29-.23-.57-.35-.84a4.35,4.35,0,0,0-1.82-2,9.75,9.75,0,0,0-.92-.49,1.85,1.85,0,0,1-1.3-2,1.32,1.32,0,0,0-.41-1.27l-.17,0-.79.34a9,9,0,0,1-1.61-2.23c-.06-.11-.11-.22-.16-.33a2.94,2.94,0,0,0-.33-.6,1.39,1.39,0,0,1-.31-1.23,3.27,3.27,0,0,0-.34-2.08c-.33-.77-.7-1.66-1-2.57a2.21,2.21,0,0,0-2.08-1.8,2.29,2.29,0,0,1-.45-.1l-.11,0,.53-2.6-.07-.17-.28-.19-.5-.33a3.77,3.77,0,0,1-1.39-1.52,12.62,12.62,0,0,0-1.67-2.43,6.88,6.88,0,0,0-2.94-1.72l-.38-.14a4.84,4.84,0,0,1-1.74-.9.75.75,0,0,1,.08-.42.75.75,0,0,0-.09-.86l-.2-.23a1.53,1.53,0,0,0-1.18-.71.44.44,0,0,1-.26-.11c-.82-.75-1.63-1.51-2.44-2.27-.42-.39-.67-.61-1-.61a1.9,1.9,0,0,0-.82.28c-.19.09-.36.2-.54.32l0,0a2.79,2.79,0,0,0-1.45-1.91l-.16-.11a1.66,1.66,0,0,0-.94-.34,1.38,1.38,0,0,0-.65.17l-.25-.86-.16-.12h-1l-.06-.07a2.71,2.71,0,0,0-.73-1.48,5.27,5.27,0,0,1-.71-1.06c-.11-.19-.22-.38-.34-.58l-.23-.05-.18.1a.88.88,0,0,0-.41.33,4.74,4.74,0,0,1-1.94,1.79,8.23,8.23,0,0,0-1.44,1.21,6,6,0,0,0-.63.76l-.22.29-.1,0a4.32,4.32,0,0,1-.51-.23.46.46,0,0,1-.18-.18c0-.15,0-.31,0-.47a2.18,2.18,0,0,1,.38-1.6,1.13,1.13,0,0,0,.34-.9l0-.26a6.71,6.71,0,0,0-.44-2.15l-.19-.1-.43.09c-.82.16-1.67.32-1.92,1.5,0,.09-.15.21-.26.31l-.15.13-.59.56-.28.26H597c-1.18-.31-2.31-.63-3.43-.94l-.56-.16a1.32,1.32,0,0,1-1-1.06,14.07,14.07,0,0,0-.45-1.56.77.77,0,0,0-.74-.62,1.27,1.27,0,0,0-.53.14l-.23.13a1.22,1.22,0,0,1-.26.14,2.84,2.84,0,0,0-1.84,2.45,2.61,2.61,0,0,0,.14,1.37,1.08,1.08,0,0,1-.4,1.35,31,31,0,0,1-5.22,3.92,4,4,0,0,0-.43.3l-.24.17-.07.17.52,2.32a3,3,0,0,1-1.65.64,4,4,0,0,0-1.55.5l-.08.15.08.94a1,1,0,0,1-.51.16,1.22,1.22,0,0,1-.33-.05l0-.15a3.9,3.9,0,0,1-.08-.65.71.71,0,0,1,.08-.26,1.47,1.47,0,0,0,.09-.25,2,2,0,0,0-.1-1.58,1.67,1.67,0,0,0-1.23-.63,2.47,2.47,0,0,1-2-1.1,1.61,1.61,0,0,0-1.41-.66l-.29,0-.14.05-1.43,1.55a4.38,4.38,0,0,1-1.1-1.53l-.55-1.07c-1.61-3.13-3.22-6.27-4.8-9.42a3.45,3.45,0,0,0-1.3-1.43c-1.73-1.09-3.46-2.18-5.18-3.29a10.92,10.92,0,0,1-3.19-2.84c-.72-1-1.51-2-2.28-3l-.66-.83a6.53,6.53,0,0,1-1.21-2.4c-.24-.9-.51-1.78-.79-2.67a2.12,2.12,0,0,0-.23-.46l-.11-.19-.14-.09a1.86,1.86,0,0,0-1.11.41,3.69,3.69,0,0,1-.32.2c-.71.37-1.32.69-1.94,1a1.2,1.2,0,0,1-.5.13,1,1,0,0,1-.73-.4l-.27-.32a7.06,7.06,0,0,0-1.38-1.39,5.79,5.79,0,0,0-1.71-.69l-.36-.1a2.74,2.74,0,0,1-1.23-.85,4.08,4.08,0,0,0-2.44-1.45,2,2,0,0,1-1.28-.92,1.38,1.38,0,0,0-1.12-.63,1.62,1.62,0,0,0-.61.13,2.61,2.61,0,0,1-1,.2,2.71,2.71,0,0,1-.89-.16,2.14,2.14,0,0,0-.71-.12,3.17,3.17,0,0,0-.67.08,4.89,4.89,0,0,1-1,.11,6.3,6.3,0,0,1-2.43-.54,7.64,7.64,0,0,0-.84-.28l-.67-.18-.73-.2-.41-.12a13.67,13.67,0,0,1-1.38-.44,2.06,2.06,0,0,0-.77-.15,3.32,3.32,0,0,0-1,.2,13,13,0,0,1-1.55.38l-.54.11-2-3.17a4.84,4.84,0,0,1-.36-.61q-.95-2.08-1.88-4.17l-.18-.4a3.75,3.75,0,0,1-.49-2.78l-.07-.19-.36-.22c-.22-.14-.42-.26-.61-.36a2.89,2.89,0,0,1-1.58-1.48,1.1,1.1,0,0,0-.43-.53,1.38,1.38,0,0,1-.68-1.45,2.18,2.18,0,0,0-.06-.62.8.8,0,0,0-.85-.75h0l-.36,0-.29,0a1.41,1.41,0,0,1-1-.37,1.36,1.36,0,0,1-.25-1,1.8,1.8,0,0,0-.23-1.35.93.93,0,0,0-.73-.25,4.85,4.85,0,0,0-.84.1h-.29a.9.9,0,0,1,.55-.24,2.54,2.54,0,0,0,.35-.09.92.92,0,0,0,.7-.89,1,1,0,0,0-.74-1,4.28,4.28,0,0,0-.88-.21,3,3,0,0,1-1.58-.67,4.47,4.47,0,0,0,0-.56,2.93,2.93,0,0,0-.45-1.49,3.11,3.11,0,0,0-.07-1.53,3,3,0,0,1-.1-1.27,4.66,4.66,0,0,0-.68-3.12l-.08-.17c-.08-.17-.17-.33-.26-.5a6,6,0,0,1-.43-.91,1.35,1.35,0,0,0-1.13-1.06l-.16-.06a.91.91,0,0,0-.25-.08c-.49-.06-.73-.34-.82-1-.07-.46-.15-.92-.23-1.41l-.11-.68-.07-.11a2.16,2.16,0,0,1-1.11-1.25,3.18,3.18,0,0,0-.48-.94l-.16-.26a4.21,4.21,0,0,1-.65-1.54,2.41,2.41,0,0,0-.23-.65l-.09-.21a2.27,2.27,0,0,0-.13-.25.86.86,0,0,1-.15-.35,6.09,6.09,0,0,0-.84-2.59c-.12-.24-.24-.49-.36-.75l.26-.48a12.64,12.64,0,0,1,.75-1.28,1.84,1.84,0,0,0,.22-1.8,1.43,1.43,0,0,0-1.35-1l-.2-.11c-.07-.14,0-.26.16-.49a2.27,2.27,0,0,0,.13-.2,1,1,0,0,0-.28-1.38,9,9,0,0,0-1.22-.81,2.25,2.25,0,0,1-.91-1c-.46-.93-1-1.88-1.56-2.82a2.14,2.14,0,0,0-1.84-1.17,2.64,2.64,0,0,0-1.14.29l-.19.09a6,6,0,0,1-2.2.73,2.39,2.39,0,0,0-1.05.48c-.17.11-.35.23-.54.34l-.06,0-.68-.08h-.17a1.08,1.08,0,0,0-1,.51,1.17,1.17,0,0,1-1,.53l-.43,0a4.35,4.35,0,0,0-2,.56l-.38.18-.36-.2a6.08,6.08,0,0,1-1-.62,3.2,3.2,0,0,1-.84-1.07c-.38-.82-.72-1.65-1.06-2.49l-.47-1.14a2,2,0,0,1,.05-1.58c.26-.68.49-1.37.71-2.06l.23-.71a3.16,3.16,0,0,0-.59-3.17,5.52,5.52,0,0,1-.68-1.23,5,5,0,0,1-.3-3.18,4.35,4.35,0,0,0,.12-.75,1.14,1.14,0,0,0-.27-.88,1.09,1.09,0,0,0-.83-.3h-.19a2.22,2.22,0,0,0-1.48.81,2.79,2.79,0,0,1-1.52.91l-.21,0a.81.81,0,0,1-.63-.28.88.88,0,0,1-.17-.73,2,2,0,0,1,.16-.44,2.09,2.09,0,0,0-.06-1.89,5.84,5.84,0,0,1-.62-2.74,5.52,5.52,0,0,0-.34-1.77c-.29-.85-.64-1.77-1.12-2.87a2,2,0,0,1,.27-2.28l.36-.46a1.88,1.88,0,0,0,.28-1.92,14.72,14.72,0,0,0-2-4.57,3.19,3.19,0,0,1-.66-2.08,2.08,2.08,0,0,0-.12-.94,3.2,3.2,0,0,1-.22-1.76,3,3,0,0,0-.07-.84,2.41,2.41,0,0,1,0-1,.74.74,0,0,0-.15-.6.77.77,0,0,0-.6-.3,2.06,2.06,0,0,1-1.5-.82,7.91,7.91,0,0,0-1.94-1.39l-.49-.28a2.75,2.75,0,0,1-1-.91c-.18-.3-.32-.53-.24-.82a1.58,1.58,0,0,0-.36-1.36,1.83,1.83,0,0,0-1.5-.92,1.88,1.88,0,0,0-.56.09,2.78,2.78,0,0,1-.83.12,6.88,6.88,0,0,1-1.53-.24l-.57-.13a1.65,1.65,0,0,1-1.15-1l0-.08a4.14,4.14,0,0,1,.22-.39,2.57,2.57,0,0,0,.16-.3c.14-.28.24-.45.46-.49l.43-.1a2.68,2.68,0,0,1,.66-.11,1,1,0,0,1,.39.07,2.34,2.34,0,0,0,.85.2,1.2,1.2,0,0,0,.84-.33,2.28,2.28,0,0,0,.86-1.78c0-.19,0-.37,0-.56s0-.31,0-.46a1.69,1.69,0,0,0-1.26-1.82c-1.18-.35-1.64-1.32-2.08-2.46a16.13,16.13,0,0,1-.52-1.71c-.06-.23-.12-.47-.19-.69l0-.05a1.83,1.83,0,0,0,1.15-2.36,4.47,4.47,0,0,1-.06-1.37c0-.16,0-.32,0-.48a4.47,4.47,0,0,1,.83-2.37l.73-1.13c.68-1.06,1.36-2.11,2.07-3.14a2.17,2.17,0,0,0,.27-2.48,1.45,1.45,0,0,1-.08-1,11.12,11.12,0,0,0,.13-1.53,3.72,3.72,0,0,0-1.37-3.1,2.12,2.12,0,0,1-.83-1.63c0-.63-.06-1.26-.06-1.89a6.64,6.64,0,0,0-.38-2.19l-.07-.2a25.51,25.51,0,0,0-1.81-4.26,2.4,2.4,0,0,1-.18-2.24,6.32,6.32,0,0,0-.38-5.36,11.85,11.85,0,0,0-1.13-1.91,7.65,7.65,0,0,1-1-2,15.22,15.22,0,0,0-.93-2.33,3.67,3.67,0,0,1,.17-3.74,2.57,2.57,0,0,0,.21-2.62,3.16,3.16,0,0,1-.19-.63c0-.16-.07-.32-.12-.48a3.9,3.9,0,0,0-2.09-2.49,4.62,4.62,0,0,1-.72-.44,4.08,4.08,0,0,1-1.59-2.72c0-.23-.08-.47-.12-.71-.06-.39-.13-.78-.22-1.17l-.07-.31a4.07,4.07,0,0,0-.49-1.4,4.59,4.59,0,0,1-.45-3.26,25,25,0,0,1,.48-2.88,8,8,0,0,1,.61-1.59c.45-1,.46-1.37-.36-2.12a6.35,6.35,0,0,1-.48-.52,3.08,3.08,0,0,0-1.45-1.1,1.08,1.08,0,0,1-.61-1,9.3,9.3,0,0,1,0-1.15c.05-.65.35-.95.94-1a1.36,1.36,0,0,0,1.14-.54.68.68,0,0,1,.34-.27,5.19,5.19,0,0,0,1.75-.57c.25-.12.5-.23.75-.33a1.26,1.26,0,0,1,.44-.09.76.76,0,0,1,.64.39,1.57,1.57,0,0,0,.14.17,3.87,3.87,0,0,0,3,1.48,5.27,5.27,0,0,0,1.27-.17,3,3,0,0,1,.52-.06,4.15,4.15,0,0,0,.48-.05,11.89,11.89,0,0,0,1.43-.33,3.17,3.17,0,0,0,1.91-1.79l2.06.12.14-.06a.73.73,0,0,0-.11-1.12c-.17-.15-.35-.29-.55-.45l-.15-.12.07-.07a3.17,3.17,0,0,1,.33-.31,4.83,4.83,0,0,1,.71-.46,14,14,0,0,0,4.66-4,10.72,10.72,0,0,1,3.4-2.85,3.73,3.73,0,0,0,1.34-1.2,10.7,10.7,0,0,1,1.13-1.31l.4-.42.7-.73c.38-.39.76-.78,1.11-1.19a21.09,21.09,0,0,1,4.77-3.79l.59-.38,2.65-1.75,1.3-.86.07-.19-.46-1.3,1.1-.8.07-.13a2.05,2.05,0,0,0-.35-1.11,2.31,2.31,0,0,1-.33-.83l.1-.06a2.81,2.81,0,0,1,.46-.24c1.42-.52,2.84-1,4.26-1.54a6.26,6.26,0,0,0,2.42-1.45c.25-.25.52-.48.79-.7s.5-.42.74-.65a2.17,2.17,0,0,1,1.59-.66h1.9a3.41,3.41,0,0,0,2.26-.79l.46-.34a6.82,6.82,0,0,0,.82-.66,16,16,0,0,1,3.65-2.58c1.65-.91,3-1.68,4.18-2.44a7.82,7.82,0,0,1,2.64-1l3.33-.69.14-.11.08-.21a1.65,1.65,0,0,0,.15-.51,1.37,1.37,0,0,0-.28-1,1.29,1.29,0,0,0-.93-.41h-.24c-.32,0-.56,0-.76-.29l.1-.14a1.79,1.79,0,0,1,.41-.44,1.78,1.78,0,0,0,.89-1.59,1.68,1.68,0,0,0-.83-1.48.69.69,0,0,1-.16-.17v0c.7-1.18.72-1.28.52-2.4l.1-.08.45-.39a1.26,1.26,0,0,0,.31-.38c.54-1.15.54-1.15,1.28-1.51.59-.93,0-1.42-.43-1.8l-.15-.13a.15.15,0,0,1,.1,0,.61.61,0,0,1,.22.07l.17.07a2.29,2.29,0,0,0,.71.15c.57,0,.72-.49.8-1a2.73,2.73,0,0,0,0-.52v-.06l.23,0c.29,0,.55.08.81.1h0a.64.64,0,0,0,.54-.29.58.58,0,0,0,.06-.55c-.17-.4-.37-.79-.59-1.21l-.24-.46.08-.08a2.51,2.51,0,0,1,.38-.37,1.75,1.75,0,0,0,.86-1.11,1.17,1.17,0,0,1,.7-.87l.13-.07a5.89,5.89,0,0,0,.65-.39.88.88,0,0,0,.26-1.24,1.75,1.75,0,0,0-.19-.27c-.16-.2-.28-.35-.18-.62l.22,0a3,3,0,0,1,.43,0,.88.88,0,0,1,.25,0,1.66,1.66,0,0,0,.47.07,2.48,2.48,0,0,0,1.39-.57,2,2,0,0,0,1-1.71l.08-.14a2.75,2.75,0,0,1,.43.12,2.27,2.27,0,0,0,.71.15,1.1,1.1,0,0,0,.48-.11l.19-.09c.41-.2.83-.4,1.26-.56s.72-.24,1.08-.35l.56-.17a1,1,0,0,0,.7-.61,1,1,0,0,0-.19-.89,2.17,2.17,0,0,0-.42-.47c-.52-.41-.6-.88-.28-1.63a3.84,3.84,0,0,0,.28-1.33c0-.85-.21-1-1.14-1.22a3.67,3.67,0,0,0-3.1-2.62l-.28-1.18-.16-.13H522l-.08-.28c-.08-.29-.17-.58-.27-.87-.29-.77-.56-1-1.29-1H520l-.42,0h0a1.42,1.42,0,0,1,0-.26,1,1,0,0,1,0-.17,1.18,1.18,0,0,0,.07-.26,1.56,1.56,0,0,0,0-.64,1,1,0,0,0-.41-.57c-.25-.11-.31-.36-.37-.65a1,1,0,0,0-.6-.87,2.2,2.2,0,0,0-.73-.14c-.44,0-.85,0-1.26.06l-.52,0h-.27a6.08,6.08,0,0,1-3.31-1.12l-.09-.17,0-.11a.74.74,0,0,1,.18-.32l.19-.13a4.58,4.58,0,0,1,1.66-.86c1.29-.29,1.41-.52,1.52-1.81,0-.58.3-.58.41-.58a1.05,1.05,0,0,1,.34.07c.26.09.52.21.77.33a9,9,0,0,0,.84.35,4.82,4.82,0,0,0,1.54.34,2.28,2.28,0,0,0,.84-.15.94.94,0,0,0,.63-1.33,3.1,3.1,0,0,0-.79-1.2c-.63-.69-.61-.71-.1-1.28.22-.24.41-.5.61-.76l.51-.68c.19-.25.37-.5.58-.74l.93-1.09c.45-.52.9-1,1.33-1.58a5.52,5.52,0,0,0,.51-.81l.19-.33a1.84,1.84,0,0,0-.15-2.1,3.62,3.62,0,0,0-2.2-1.55,4,4,0,0,1-.61-.22l-.17-.07a2.22,2.22,0,0,1,1.12-1.22,7.46,7.46,0,0,1,2.27-.82,13.78,13.78,0,0,0,2.6-1c.49-.22,1-.44,1.49-.63a1.08,1.08,0,0,0,.64-1.29,2.75,2.75,0,0,0-1.5-2.2c-.65-.28-1.11-.6-1.22-1.3a1.23,1.23,0,0,0-.28-.53,1.17,1.17,0,0,1-.19-1.38,2.2,2.2,0,0,0-.48-2.59,5.66,5.66,0,0,0-2.11-1.65.6.6,0,0,1-.41-.82h.12a4.46,4.46,0,0,1,.48,0h.14a2,2,0,0,0,1.68-.91l.7-1c.62-.85,1.26-1.72,1.83-2.62a6,6,0,0,0,.58-1.38c.06-.18.12-.37.18-.55s.14-.43.22-.67l.07-.22.14.05a2.33,2.33,0,0,1,.48.21c1,.68,2,1.3,2.9,2a8,8,0,0,1,1.25,1.17c.57.64,1.13,1.29,1.7,1.94.78.9,1.55,1.8,2.35,2.67s1.72,1.78,2.58,2.63l.6.59a2.62,2.62,0,0,0,.51.36l.29.18h.2c1.21-1,2.35-2.1,3.45-3.15.57-.55,1.15-1.09,1.73-1.63l3.51-3.26,1.58-1.47a15.85,15.85,0,0,1,8.19,3.4h.19a23.53,23.53,0,0,0,2.51-1.94,26.28,26.28,0,0,1,2.09-1.66c1.08-.74,2.14-1.5,3.23-2.27l1.31-.93a9.26,9.26,0,0,1,.45,1.7,6.87,6.87,0,0,0,.82,2.44l.21.06a7.93,7.93,0,0,0,1.78-1.28c.2-.18.41-.36.62-.52s.7-.57,1-.86.8-.67,1.21-1,1.07-.8,1.6-1.19l.59-.43.06,0a2,2,0,0,0,1.15,1.91,1.93,1.93,0,0,1,.76,1l.09.2c.22.46.44.93.65,1.4l.26.57.12.09a11.47,11.47,0,0,0,2,.16c.64,0,1.27,0,1.89-.08a2.23,2.23,0,0,0,.93-.36l.2-.11c.55-.29,1.08-.6,1.64-.92l.57-.33.17.24a7.27,7.27,0,0,1,.47.73c.19.35.36.7.54,1.05.28.57.56,1.13.89,1.67s.78,1.17,1.22,1.76l.52.71-.22.22-.91.87a1.72,1.72,0,0,0-.64,1.25,3,3,0,0,1-1,2.49l0,.23a21.65,21.65,0,0,0,2.18,2.17c.48.43,1,.86,1.4,1.31l.18,0a1.44,1.44,0,0,0,.85-1.12,2.19,2.19,0,0,1,.19-.51,2.46,2.46,0,0,1,.89.55,3.94,3.94,0,0,0,.86.59h.16l1-.67.48.13c.43.11.89.23,1.33.38a3.59,3.59,0,0,0,1.17.2,3.68,3.68,0,0,0,1.5-.33c1-.45,2.06-.87,3.1-1.29a3.39,3.39,0,0,1,1.26-.29,2.36,2.36,0,0,1,.48,0,2,2,0,0,0,.41,0,5.46,5.46,0,0,0,1-.14l.34-.06c.43-.07.85-.18,1.29-.28l.47-.11.37.67-1.28,1.51,0,.16.44,1.37a1.81,1.81,0,0,1-.59.62l-.2.16-1.15,1c-1.1.94-2.21,1.87-3.29,2.83a7.75,7.75,0,0,0-1.25,1.46c-.61.89-1.17,1.84-1.71,2.75a3.16,3.16,0,0,0-.48,1.1,15.83,15.83,0,0,1-2.49,6.71,2.46,2.46,0,0,0-.23.47l-.07.17v.15a.58.58,0,0,0,.52.36.91.91,0,0,0,.34-.08c.38-.16.76-.33,1.16-.52l.43-.2,1.81,1.1h.17l.19-.1a1.44,1.44,0,0,0,.45-.29,1.73,1.73,0,0,1,1.37-.56,4.6,4.6,0,0,1,.64.05,4.05,4.05,0,0,1,2.49,1.13c.56.58,1.17,1.12,1.76,1.64s1,.87,1.46,1.34,1,1.08,1.46,1.62l.56.65a1.78,1.78,0,0,1-1,1.82,43.62,43.62,0,0,0-4.27,3c-.6.45-1.2.91-1.8,1.35a1.7,1.7,0,0,0-.35.39l-.19.24.06.26c1.85.88,3.75,1.56,5.59,2.22.85.31,1.69.61,2.53.93,2,.76,4,1.5,6,2.23l10.31,3.77,8,2.94a10.18,10.18,0,0,1-.12,2l-.05.42a16.73,16.73,0,0,1-3.61,1.36c-.65.19-1.26.32-1.87.44l-1,.22-.15,0a2,2,0,0,0-.74.26,16,16,0,0,0-2.64,2.22l0,.13a.66.66,0,0,0,.67.64l1.27.2c1.29.2,2.62.41,3.94.55a30.8,30.8,0,0,1,5,1c1.45.4,2.9.83,4.35,1.26a3,3,0,0,0,.87.13,3.17,3.17,0,0,0,.65-.07c.59-.12,1.19-.22,1.8-.31l.63-.1a4.81,4.81,0,0,1,.13,1.33c0,.15,0,.31,0,.46a9.21,9.21,0,0,1,0,.93V367a7,7,0,0,0,.85,4,11.15,11.15,0,0,1,.94,2.66c.15.58.31,1.17.52,1.74s.34,1,.51,1.46a17.64,17.64,0,0,0,1.7,4,4.73,4.73,0,0,1,.47,1.15c.48,1.55,2.36,7.71,2.36,7.71a4.86,4.86,0,0,0,.19.48l.07.16.2.15a.6.6,0,0,0,.26.1c.47,0,.73,0,1,0,.8,0,1.08-.23,1.9-1L659,389a18.11,18.11,0,0,0,3.45-4,1.26,1.26,0,0,1,.21-.25l0,0s0,.07,0,.17l-.15.8c-.1.58-.2,1.16-.35,1.73a1.46,1.46,0,0,0,.48,1.6l.63.53.23.19c0,.56-.1,1-.61,1.26a1.29,1.29,0,0,0-.59,1.13,3.73,3.73,0,0,1-.2.94.75.75,0,0,1-.34.41c-.91.21-1.15.94-1.37,1.59a6.05,6.05,0,0,0-.23,1,2,2,0,0,1-.74,1.4,5.19,5.19,0,0,0-1,1.12,2.67,2.67,0,0,0-.46,2.62,2.56,2.56,0,0,1,.13.8,1,1,0,0,0,.58,1,.88.88,0,0,1,.37.44,20.68,20.68,0,0,1,.7,2.35c0,.12,0,.24.06.37a2.05,2.05,0,0,0,.36,1.06.52.52,0,0,1-.07.62L660,408a4.25,4.25,0,0,1-.73.85,2.86,2.86,0,0,0-1.11,1.62,2.57,2.57,0,0,1-.75,1.29,2,2,0,0,0-.47.64,5.34,5.34,0,0,1-2.22,2.31,8.17,8.17,0,0,0-2.06,1.7l-.17.22a3.56,3.56,0,0,0-.52.76,3.06,3.06,0,0,1-1.33,1.33,3.67,3.67,0,0,0-1.72,3.37,9.73,9.73,0,0,1-.35,2.58c-.05.24-.11.47-.16.71l-2.6.32a.89.89,0,0,0-.16,1.16l.94,2.08q2.09,4.69,4.2,9.37a6,6,0,0,0,.74,1.14c.26.34.47.58.68.81l.35.4a2,2,0,0,1,.53,2.24,1.57,1.57,0,0,0,0,1.12c.12.27.23.55.34.83a8.72,8.72,0,0,0,1.3,2.46l.4.45a6.82,6.82,0,0,1,.78,1,5,5,0,0,1,.42,1c.07.2.13.4.21.59l.1.24c.19.47.38.93.62,1.38a17.77,17.77,0,0,0,1.19,2c.83,1.17,1.74,2.42,2.74,3.63a32.12,32.12,0,0,0,2.44,2.54c.65.63,1.32,1.25,2,1.87l1.53,1.43a5.53,5.53,0,0,0,2.17,1.31c.43.13.85.29,1.27.44s1.08.39,1.63.55a20.31,20.31,0,0,1,4.75,2.11,6.17,6.17,0,0,0,2,.69l.68.11a3.52,3.52,0,0,1,1.87.63.78.78,0,0,0,.47.16l.28,0a2.67,2.67,0,0,1,1.6.74l.4.3.22.15a3.21,3.21,0,0,0,1.41.68,4.2,4.2,0,0,0,1.19-.46l.35-.18a2.23,2.23,0,0,1,.77-.15,3.13,3.13,0,0,0,.75-.13l.29-.09a1.68,1.68,0,0,0,1.33-1,.35.35,0,0,1,.14-.15h.12a2.62,2.62,0,0,0,.71-.13,2.39,2.39,0,0,1,.64-.12,1,1,0,0,1,.33.05,1.07,1.07,0,0,0,.33,0,1.8,1.8,0,0,0,.91-.27,3.88,3.88,0,0,1,2.18-.68,4.72,4.72,0,0,1,1.27.19,23.29,23.29,0,0,0,3.56,4.89c.6.68,1.19,1.37,1.75,2.08a18.6,18.6,0,0,0,3.85,3.6,2,2,0,0,0,1.22.46,2.07,2.07,0,0,0,.68-.12c1.22-.42,2.46-.82,3.7-1.21l2.14-.68a4.27,4.27,0,0,0,2.72-2.24,1.69,1.69,0,0,1,1.55-.9,20.74,20.74,0,0,0,3-.53c.69-.16,1.37-.32,2.07-.42a9.14,9.14,0,0,0,3.52-1.52,5,5,0,0,0,.85-.75l.34-.34.77.3a5.62,5.62,0,0,0,1.93.45,2.86,2.86,0,0,0,.86-.13,1.55,1.55,0,0,1,.44-.07.94.94,0,0,1,.86.55,2.37,2.37,0,0,0,1.14,1,1.17,1.17,0,0,1,.49.38,4.65,4.65,0,0,0,2.13,1.57l.3.14a3.25,3.25,0,0,1,1.32,1,9,9,0,0,0,2.83,2.31c.38.23.77.47,1.14.72a2.43,2.43,0,0,0,1.34.32,4.65,4.65,0,0,1,2.44.58,2,2,0,0,0,1.1.26h.33c.8,0,1.52,0,2.24,0h.46a3.39,3.39,0,0,0,1.48-.3c.74-.34,1.49-.66,2.27-1l.79-.34a3.82,3.82,0,0,1-.53,2.77,8.72,8.72,0,0,0-1.35,2.79,2.41,2.41,0,0,1-.5.85l-.24.32c-.16.23-.34.46-.51.69s-.54.71-.78,1.09a2.42,2.42,0,0,0-.08,2.79,2,2,0,0,1,.36,1.27V491a1.24,1.24,0,0,0,0,.5,2.41,2.41,0,0,1-.32,2.34,1.25,1.25,0,0,0-.14.76v.18c0,.18,0,.36,0,.54s0,.23,0,.34a3.27,3.27,0,0,1-.79,2.58,2.66,2.66,0,0,0-.55.93,1.87,1.87,0,0,1-1.18,1.2,2.51,2.51,0,0,0-.78.5,1.66,1.66,0,0,0-.47,2c.38.91.74,1.83,1.1,2.75l.14.36a4.41,4.41,0,0,1,.26.8,1.29,1.29,0,0,1-.63,1.45l-.15.09a5.41,5.41,0,0,1-2.88,1.12h-.14a3.23,3.23,0,0,0-1.14.28,1.26,1.26,0,0,0-.8,1.47,2.43,2.43,0,0,0,.19.6,2.09,2.09,0,0,1-.24,2.31,1.48,1.48,0,0,0-.1,1.68,5.39,5.39,0,0,1,.31.76l.06.16a1.72,1.72,0,0,1-.55,2.17l-.2.15a2,2,0,0,0-.27.21,1.21,1.21,0,0,0-.25,1.65,6.85,6.85,0,0,1,.9,2.31c-.06.15-.13.37-.2.59a10.87,10.87,0,0,0-.37,1.37,3.28,3.28,0,0,1-1.29,2.08c-.26.2-.53.39-.8.57l-.26.18a3.26,3.26,0,0,0-1.4,2.75V531c0,1-.06,2,0,3a2.78,2.78,0,0,1-.92,2.22l-.22.23a2.65,2.65,0,0,1-.28.28,2.92,2.92,0,0,0-.8,3.36,15.72,15.72,0,0,0,.58,1.7l.25.65a1.62,1.62,0,0,1-.58,2l-.21.17a2.67,2.67,0,0,1-1.07.64,1.71,1.71,0,0,0-.49.23l-.21.12-.09.16,0,.26a3.19,3.19,0,0,0,.05.51,1.25,1.25,0,0,1-.44,1.28,2.61,2.61,0,0,0-.61.88,3.66,3.66,0,0,1-1.18,1.69,1.41,1.41,0,0,0-.42.5,7.53,7.53,0,0,0-.64,3.63,4.23,4.23,0,0,0,1.4,2.64,2.06,2.06,0,0,0,.34.26l.15.1a.79.79,0,0,1,.23,1,3.44,3.44,0,0,1-.26.52,4.28,4.28,0,0,0-.27.52,3.75,3.75,0,0,0-.25,2.95,1.24,1.24,0,0,1,0,.74,2.72,2.72,0,0,0,1.11,2.84,3.31,3.31,0,0,0,.76.52,1.93,1.93,0,0,1,1,1.91,3.54,3.54,0,0,1-1.1,2.9,4.82,4.82,0,0,0-.51.52l-.27.29,0,.13,0,.26c0,.21.06.44.07.68l0,.17a1.22,1.22,0,0,1,0,.48,2.68,2.68,0,0,0,0,2.25.5.5,0,0,1-.06.27,7.37,7.37,0,0,0-.54,2.35c0,.23-.05.46-.09.69a4.62,4.62,0,0,1-.81,2.2l-.35,0-1.67.39-.2-.12-.87-.39a2,2,0,0,0-.89-.21,2.37,2.37,0,0,0-1.35.47c-.44.3-.87.63-1.29,1a1.84,1.84,0,0,0-.65,2.1,13.94,13.94,0,0,0,1.58,3.94,1.79,1.79,0,0,1,.19,1,2.4,2.4,0,0,0,.48,1.75,1,1,0,0,1,.26.54v.24a19.33,19.33,0,0,1-.11,2.66,1.71,1.71,0,0,1-.68.92,10.28,10.28,0,0,1-1.85,1.1,3,3,0,0,1-.92.2l-.31,0a4.93,4.93,0,0,0-3.7,2.56,15.23,15.23,0,0,0-.91,1.85,3.11,3.11,0,0,0-.25,1.2c0,.92.23,1.78,1.71,1.85h1.08c1.21,0,1.4-.14,2.49-1.06.24.06.5.1.76.14a4,4,0,0,1,1.73.57,3.69,3.69,0,0,1-.64,1.38l-.37.59a10.48,10.48,0,0,0-1.35,2.72l-.06.19a1.82,1.82,0,0,0-.12.71,14.16,14.16,0,0,1-.56,4.84,7.33,7.33,0,0,0,0,3.68,2.86,2.86,0,0,1,.08,1.45l-.23.09a8.16,8.16,0,0,1-.74.44,3.44,3.44,0,0,0-1.86,2.31,13,13,0,0,1-1,2.7,4.36,4.36,0,0,0-.38,2.66l0,.2a6.33,6.33,0,0,0,.58,2.22,2.94,2.94,0,0,1,.08,2.16,2,2,0,0,1-1,1.2,2.57,2.57,0,0,0-1.39,1.76.6.6,0,0,1-.13.3,1.67,1.67,0,0,0-.14,2.35c.93,1.46.73,2.9.13,4.61l-.05.12a1.06,1.06,0,0,0-.1.33,9,9,0,0,1-.64,3.06,1.43,1.43,0,0,0,.3,1.4,4.44,4.44,0,0,0,.35.43c.1.12.21.23.3.36,1.21,1.67,1.44,1.76,2.62,2.06.27.07.6.15,1,.27s.55.14.82.2.5.11.74.18a3.66,3.66,0,0,1,1.37.65,3.06,3.06,0,0,0,1.95.8,2.68,2.68,0,0,0,1.21-.31.64.64,0,0,1,.29-.08c.18,0,.34.12.46.37.35.7.72,1.46,1,2.24a1.32,1.32,0,0,1,0,.76l-.1.42a15.35,15.35,0,0,1-.62,2.08,5.25,5.25,0,0,0-.17,3.38,2,2,0,0,1-.2,1.56l-.3.54a11,11,0,0,0-.59,1.14.91.91,0,0,1-.85.63h-1.14l-2.2,0a6.25,6.25,0,0,1-1-.1,1.3,1.3,0,0,1-.25-.08,1.76,1.76,0,0,0-.3-.1,2.34,2.34,0,0,0-.45,0,2,2,0,0,0-1.46.61,2.11,2.11,0,0,0-.56,1.58,1,1,0,0,0,1,1,9.57,9.57,0,0,0,1.87-.34,1.27,1.27,0,0,1,.37-.06,1.56,1.56,0,0,1,.75.23,14,14,0,0,1,3.51,3c.35.38.33.6-.12,1.16a1.94,1.94,0,0,1-1.63.79,3.9,3.9,0,0,1-.7-.07c-1.34-.24-2.69-.47-4-.7a2.39,2.39,0,0,0-.39,0,.87.87,0,0,0-.26,0,1.89,1.89,0,0,1-.59.09,5.25,5.25,0,0,1-.74-.07l-.19,0-.39,0c-.79,0-1,.48-1.12,1.26,0,.28-.09.56-.15.84l-.6-.15-1.45-.31A1,1,0,0,1,714,674a1.9,1.9,0,0,0,.29-.15,8,8,0,0,0,.84-.61.58.58,0,0,0,.19-.5.68.68,0,0,0-.31-.53,3.49,3.49,0,0,0-.69-.33l-.45-.12a3.27,3.27,0,0,1-.53-.15,3,3,0,0,0-1.09-.31c-.4,0-.58.24-.83.57-.09.11-.19.25-.31.39a2.68,2.68,0,0,0-.81,2.11.53.53,0,0,1,0,.18.39.39,0,0,1-.35.25,4.23,4.23,0,0,1-.82-.9c-.16-.22-.31-.46-.47-.69a11.84,11.84,0,0,0-.89-1.23,3.68,3.68,0,0,1-.85-1.88l-.4-2.55-.11-.13a4,4,0,0,0-1.18-.27,2.71,2.71,0,0,0-1.33.5,1.53,1.53,0,0,1,.11-.49,3,3,0,0,0,.1-.35,5.31,5.31,0,0,0,.15-1.34,1,1,0,0,0-1-1,1.18,1.18,0,0,0-.49.11,2.84,2.84,0,0,0-1.43,1.36l-.52,1.12c-.42,0-.81.05-1.2.05a5.6,5.6,0,0,1-1.44-.16,1.34,1.34,0,0,0-.33,0,.64.64,0,0,0-.48.18,1,1,0,0,0-.21.72,2.17,2.17,0,0,0,0,.24c0,.22,0,.35-.07.46-.64.62-1.16,1.33-.74,2.27h-.13c-.49,0-.7-.32-.94-.69l-.08-.12a.85.85,0,0,1,0-1,1.89,1.89,0,0,0,.3-.73.75.75,0,0,0-.19-.68,1.12,1.12,0,0,0-.61-.19l-.17,0a1.36,1.36,0,0,0-.58.38,4.76,4.76,0,0,0-.43.46l0,0a7.5,7.5,0,0,0-.39-.76,3,3,0,0,1-.51-1.44,1.43,1.43,0,0,0-.18-.58,1,1,0,0,0-.89-.68,1.08,1.08,0,0,0-.8.41c-.13.15-.24.31-.38.49l-.08.1-.07-.12a1.84,1.84,0,0,0-.5-.62,1.51,1.51,0,0,0-.81-.22l-.27,0a2.51,2.51,0,0,0-.76.33l-.31.17c0-.06-.14-.11-.28-.17a3.91,3.91,0,0,0-1.07-.33l-.41,0a1.26,1.26,0,0,0-1.1.46,4.53,4.53,0,0,0-.51,1l-.2.49-.27.08a8.49,8.49,0,0,0-1,.34,1.5,1.5,0,0,0-.89.78,1.48,1.48,0,0,0,.16,1.17l.09.14c.33.65.3.72-.23,1.08-.18.12-.35.25-.52.38s-.35.26-.53.38a1.56,1.56,0,0,1-.84.31,1.05,1.05,0,0,1-.61-.2,3.51,3.51,0,0,0-2.05-.57h-.51a2.45,2.45,0,0,1-2-.84,1.27,1.27,0,0,0-.25-.22.73.73,0,0,0-.41-.13.72.72,0,0,0-.68.48,4.81,4.81,0,0,0-.16.6l0,.15h-.43c-.41,0-.8,0-1.19.06s-.7.43-.88.76a1.77,1.77,0,0,1-.26.41,1.18,1.18,0,0,1-.48-.69c0-.09-.07-.17-.1-.25-.13-.28-.34-.65-.74-.65a1.12,1.12,0,0,0-.65.27,3.48,3.48,0,0,1-1.24.49,6.62,6.62,0,0,0-.81.24l-.5.52-.48.52h-.08l-.32,0a5.32,5.32,0,0,0-1,.21,1.84,1.84,0,0,1-.6.11,1.31,1.31,0,0,1-1-.55,1.26,1.26,0,0,0-.27-.22l-.17-.12h-.2l-.77.53h0c-.4,0-.59-.27-.79-.59a2.41,2.41,0,0,0-.4-.5l-.13,0-1.21.17s-.1-.14-.21-.24a1.25,1.25,0,0,0-.85-.46,1,1,0,0,0-.35.07l-.25-.14a5.58,5.58,0,0,1-.65-.39,2,2,0,0,0-1.13-.51,1.25,1.25,0,0,0-.64.19.39.39,0,0,1-.2,0,2.05,2.05,0,0,1-.39-.05,1.78,1.78,0,0,0-.38,0,3.06,3.06,0,0,0-.68.09,6.54,6.54,0,0,1-1.42.22,2.25,2.25,0,0,1-1.24-.35,2.89,2.89,0,0,0-1.53-.42,3.49,3.49,0,0,0-.87.11,7.81,7.81,0,0,1-.86.15l-.43.06-.56.58c-.35.4-.7.8-1.09,1.16a15.59,15.59,0,0,1-1.24,1l-.46.35a2.52,2.52,0,0,0-1,1.52,3.2,3.2,0,0,1-.26.69l-.1.22A1.05,1.05,0,0,1,641.46,675.37Z" transform="translate(-358.73 -166.52)"/><path class="cls-1" d="M747.38,478.94a2.49,2.49,0,0,1-1.25-.3,4.12,4.12,0,0,0-2-.52,3.64,3.64,0,0,0-.54,0l-.2,0a1.49,1.49,0,0,1-.9-.34,16.94,16.94,0,0,0-1.47-1,6.71,6.71,0,0,1-1.92-1.67,3.8,3.8,0,0,0-1.67-1.25,5.59,5.59,0,0,1-2.21-1.49,6.74,6.74,0,0,0-.85-.78,5.29,5.29,0,0,1-1-1,1.67,1.67,0,0,0-1-.47,1.85,1.85,0,0,0-.4,0,3.17,3.17,0,0,0-.53.05,4.18,4.18,0,0,1-.7.06,4,4,0,0,1-1.89-.48,5.82,5.82,0,0,0-.65-.27l-.26-.1-.24,0a.4.4,0,0,0-.28.14,6,6,0,0,1-4,2.5l-1.07.24c-1.33.3-2.7.6-4.07.8a5.59,5.59,0,0,0-1.23.37,2,2,0,0,0-1.11.93,4.08,4.08,0,0,1-2.44,2c-1.44.45-2.87.91-4.32,1.38l-1.77.57-.26-.18a13.81,13.81,0,0,1-3-2.49c-.57-.68-1.16-1.35-1.75-2-.85-1-1.72-2-2.52-3l-.24-.31a7.25,7.25,0,0,1-1.35-2.19,1.58,1.58,0,0,0-1.31-1,4.33,4.33,0,0,0-.92-.1,7.32,7.32,0,0,0-2.56.58l-.25.12a.83.83,0,0,1-.32.13,2.19,2.19,0,0,1-.51-.13,2.23,2.23,0,0,0-.61-.15h0a1,1,0,0,0-.54.2.77.77,0,0,1-.39.17,1.7,1.7,0,0,0-.35,0l-.34,0a1.35,1.35,0,0,0-.67.74c-.15.31-.26.51-.52.56a11.17,11.17,0,0,1-1.19.19l-.7.09c-.16.11-.3.25-.45.36a1.42,1.42,0,0,1-.78.37,1.35,1.35,0,0,1-.73-.33l-1.54-1.11-.11-.09a.85.85,0,0,0-.46-.24,7.39,7.39,0,0,1-2-.49,7.72,7.72,0,0,0-2.18-.51,3.1,3.1,0,0,1-1.41-.53,28.78,28.78,0,0,0-5.6-2.39l-.48-.17-.33-.09-.24-.06a7.41,7.41,0,0,1-3.53-2.05,23.18,23.18,0,0,0-1.92-1.8c-.44-.39-.89-.77-1.31-1.18a27.41,27.41,0,0,1-2.16-2.35c-.92-1.13-1.81-2.33-2.56-3.37a16.32,16.32,0,0,1-2.35-4.78,2.79,2.79,0,0,0-.87-1.41,7.71,7.71,0,0,1-2-3.41,1.62,1.62,0,0,1,0-1,2.83,2.83,0,0,0-.41-2.35l-.07-.13a.92.92,0,0,0-.22-.28,11.73,11.73,0,0,1-2.8-4.44l-.31-.7c-1-2.15-1.91-4.31-2.85-6.47l-.5-1.15a4.63,4.63,0,0,1-.19-.55l0-.16,2.38-.37.13-.11.09-.26a3.22,3.22,0,0,0,.2-.67l.13-.85a22,22,0,0,0,.29-2.64,2.53,2.53,0,0,1,1.54-2.4,2,2,0,0,0,1.13-1,6.5,6.5,0,0,1,2.52-2.65,7.69,7.69,0,0,0,2.79-2.83,9.48,9.48,0,0,1,.52-.83,5.55,5.55,0,0,0,.9-1.74.93.93,0,0,1,.31-.36l.22-.2.32-.34c.26-.28.52-.55.77-.84a1.65,1.65,0,0,0,.34-1.53c-.34-1.28-.69-2.42-1.06-3.48l-.09-.29a1.77,1.77,0,0,0-.86-1.26,3,3,0,0,1,0-2.68,4.67,4.67,0,0,1,.88-1.08,3.07,3.07,0,0,0,1.13-2.1,8,8,0,0,1,.17-.88l.09-.39a2.75,2.75,0,0,0,.48-.18,1.54,1.54,0,0,0,1-.91c.13-.41.24-.82.35-1.27l.17-.67a2,2,0,0,0,1-1.74,1.36,1.36,0,0,0-.53-1.31l-.29-.22a1.1,1.1,0,0,1-.46-1.29c.2-.73.37-1.5.52-2.28a3.3,3.3,0,0,0,0-.74c0-.09,0-.18,0-.28l.27-.17c.28-.17.57-.35.85-.54a4,4,0,0,1,1.18-.53l0,.23a4.83,4.83,0,0,1,.07.75,1.79,1.79,0,0,0,1,1.69l.45.25a16.13,16.13,0,0,0,1.5.78,1.33,1.33,0,0,0,.53.1,2.54,2.54,0,0,0,.55-.06,1.87,1.87,0,0,0,.6-.3L671,386l.14.05a4.39,4.39,0,0,0,.58.18,2.22,2.22,0,0,0,.47.06c.55,0,.8-.35,1-.92l.12-.3a3.65,3.65,0,0,0,.5,0,3.21,3.21,0,0,0,1.44-.35,4.14,4.14,0,0,1,1.64-.27,3.25,3.25,0,0,0,2.05-.67c.34.22.68.42,1,.62a8.59,8.59,0,0,1,2,1.43l.51.05h.77a2.12,2.12,0,0,1,1.39.42,4.91,4.91,0,0,0,1.62.79,1.28,1.28,0,0,1,1,1.34c0,.18,0,.37,0,.55s0,.31,0,.46c0,.64.32,1.11.76,1.19a1.89,1.89,0,0,0,.37,0,1.22,1.22,0,0,0,1.09-.59,6.89,6.89,0,0,0,.43-.8l.06-.12a4.42,4.42,0,0,1,1.31-1.62l.41-.32a19,19,0,0,1,2.13-1.5l1.42,1.53.14.05.8-.08c.61-.06,1.21-.12,1.82-.19.82-.11,1.09-.43,1.14-1.33,0-.13,0-.27,0-.41v-.2a2,2,0,0,1,1.18-.66c.35-.07.71-.16,1.06-.25a9.28,9.28,0,0,1,2.26-.38l.5,0h.13a3,3,0,0,0,1.2-.36,32.44,32.44,0,0,1,4.94-1.71c.59-.16,1.16-.32,1.33-1a.28.28,0,0,1,.11-.11,6.59,6.59,0,0,0,2-2.16l.34-.49c.21-.3.45-.58.69-.86l.32-.38a24.5,24.5,0,0,0,1.53-2.14l.26-.41a4.34,4.34,0,0,1,1.64-1.75,6,6,0,0,0,2.05-1.72,2.37,2.37,0,0,1,.55-.46l.19-.14.37-.24c.16-.1.33-.21.48-.32s.29-.24.42-.37a3.75,3.75,0,0,1,.68-.53,3.91,3.91,0,0,1,.9-.31l.42-.12a1.36,1.36,0,0,0-.08-1.66,3.13,3.13,0,0,0-2.24-1.47,2.22,2.22,0,0,1-1.72-.83l2.14-1.44.06-.21a6.38,6.38,0,0,0-2.65-3.15,12.16,12.16,0,0,1-1.55-1.07l-.77-.58-1.89-4.46-.12-.1a9.3,9.3,0,0,0-2.05-.2c-.44,0-.87,0-1.3,0l-.86,0a5.83,5.83,0,0,0-2.26.67,9.42,9.42,0,0,1-1.42.55l-.26-.93c-.22-.79-.43-1.56-.69-2.32-.34-1-.74-2-1.24-3.13-.33-.74-.69-1.47-1.07-2.22l-.46-.93.41-1,0-.16L703.48,342l.69-1.06v-.19a39,39,0,0,0-2.76-3.26c-.72-.79-1.47-1.61-2.14-2.46l.48-2.87a2.29,2.29,0,0,0-.3-1.64c-1.41-2.39-2.79-4.79-4.16-7.21a1.31,1.31,0,0,0-1.2-.76l-.3,0-.38.06c-.26,0-.53.08-.79.13l-4.7,1.06-.27,0a1.42,1.42,0,0,0-.78.28,8.54,8.54,0,0,1-1.53,1.09,6.09,6.09,0,0,0-2.22,1.9,3,3,0,0,1-2.43,1.4,7.19,7.19,0,0,0-2.81.93,7.38,7.38,0,0,1-1.87.62,3.72,3.72,0,0,0-1.89,1c-.1,0-.12-.13-.15-.29a.62.62,0,0,0-.25-.46,8.29,8.29,0,0,1-.71-.48c-.14-.11-.29-.23-.33-.34a1,1,0,0,0-.92-.69l-.26-.07a2,2,0,0,1,.11-1.24l.19,0a3.67,3.67,0,0,0,.64.08,3,3,0,0,0,.88-.19,1.1,1.1,0,0,0,.74-.62A.94.94,0,0,0,674,326a12.61,12.61,0,0,0-.8-1.23l-.17-.24a3.24,3.24,0,0,0-.29-.34l-.19-.22a5.5,5.5,0,0,1-1.43-3.2,2,2,0,0,0,.53-2.34l0-.19a4.06,4.06,0,0,0-.74-1.45,3.08,3.08,0,0,1-.6-2.48,4.6,4.6,0,0,0,0-.79,1.73,1.73,0,0,1,.41-1.42l0-.2a3,3,0,0,0-1.87-1.69,1.07,1.07,0,0,1-.45-.16,1.69,1.69,0,0,0-1.38-.57l-.51,0h-.15a1.1,1.1,0,0,1-.79-.3.79.79,0,0,0-.48-.25c-.76,0-1-.48-1.19-1.16a1.88,1.88,0,0,0-.52-.77c-.21-.22-.45-.43-.7-.65l-.34-.3c0-.28,0-.67,0-1.06a5.35,5.35,0,0,0-.62-2.95l1.09-1.28a3,3,0,0,0,.13-3.7,1.52,1.52,0,0,0-1.35-.78A3.92,3.92,0,0,1,660,296a1.84,1.84,0,0,0-.79-.19,1.38,1.38,0,0,0-1.2.74,1.09,1.09,0,0,1-1,.55h-.16c-.08-.15,0-.28.09-.55l.08-.18a1,1,0,0,0-.44-1.43,1.64,1.64,0,0,0-.28-.17l-.56-.23a6.61,6.61,0,0,1-1.13-.53,4.72,4.72,0,0,1-.77-.66c-.17-.17-.34-.33-.52-.48a1.06,1.06,0,0,0-.7-.25,2.61,2.61,0,0,0-.81.18,2.33,2.33,0,0,1-.7.15c-.31,0-.53-.13-.76-.81a2.45,2.45,0,0,1,0-1.87,3.76,3.76,0,0,0,.23-.56,1.08,1.08,0,0,0-.09-.87,1,1,0,0,0-.68-.44l-.42-.08A12.26,12.26,0,0,0,647,288a4.63,4.63,0,0,0-2.08.46l-.66-.68-.17-.2a1.43,1.43,0,0,0-.49-.44,3,3,0,0,1-1.6-2.31,5.29,5.29,0,0,1,.21-3.33,1.89,1.89,0,0,1,.39-.53l.77-.77.67-.67c.63-.65.65-.85.19-1.72,0-.09-.1-.18-.16-.27l-.08-.12.1-.25a5.06,5.06,0,0,0,.15-.92,3.76,3.76,0,0,0-.09-.84c0-.12,0-.23-.06-.35l0-.21c0-.13,0-.25-.05-.38a2.33,2.33,0,0,1,.78-2.59,1.36,1.36,0,0,0,.5-.84,4.81,4.81,0,0,1,1.12-2.23l.1-.13a14.73,14.73,0,0,0,1.9-3.15,2.73,2.73,0,0,1,2.07-1.83,2,2,0,0,0,1.65-1.87,5.53,5.53,0,0,1,.13-.64,6.43,6.43,0,0,0,.14-.64,2.28,2.28,0,0,1,1.16-1.75,2.79,2.79,0,0,0,.78-.85l.12-.17a13.29,13.29,0,0,0,.86-1.37,1.6,1.6,0,0,1,.82-.83,1.37,1.37,0,0,0,.93-1.24,2.36,2.36,0,0,1,1.44-1.87l.48-.26.29-.16a5.38,5.38,0,0,0,2.8-2.81,2.7,2.7,0,0,1,.37-.62,4.31,4.31,0,0,0,.31-.48,2.25,2.25,0,0,0,.34-1.93,1.19,1.19,0,0,1,.06-.86,10.72,10.72,0,0,1,3.07-4.1,21.35,21.35,0,0,0,3.19-2.76,5.9,5.9,0,0,1,1.2-.87l.56-.35.31-.19a2.62,2.62,0,0,0,.56-.37l.62-.58a19.9,19.9,0,0,0,3.27-3.61,1.76,1.76,0,0,1,1.5-1,1.65,1.65,0,0,0,.76-.31c.56-.34,1-.64,1.44-.94.22-.15.42-.28.47-.48a1.11,1.11,0,0,1,.8-.74,1.33,1.33,0,0,0,.79-1c0-.19.1-.39.17-.58a6.82,6.82,0,0,0,.19-.69,5.83,5.83,0,0,1,1.35-2.92,1.57,1.57,0,0,0,.37-1.22,1.21,1.21,0,0,1,0-.38,4.38,4.38,0,0,0-.75-3.49l-.12-.08a3.51,3.51,0,0,1-2-1.34l-.38-.4a7.52,7.52,0,0,1-1-1.23,3.32,3.32,0,0,1-.59-2.51c0-.08,0-.15,0-.23a1.84,1.84,0,0,1,.06-.33,17.83,17.83,0,0,0,.58-3.78,5.3,5.3,0,0,1,1-2.6,8.73,8.73,0,0,1,3.84-3.26,2.47,2.47,0,0,0,1.42-1.37,2,2,0,0,1,.41-.68,1.07,1.07,0,0,0,.1-1.59h.15a.68.68,0,0,1,.3,0c.4.21.77.46,1.13.69l.42.28A1.46,1.46,0,0,1,688,202a1.63,1.63,0,0,0-.2.25c-.41.61-.14,1,.06,1.13a.79.79,0,0,0,.5.2h0a1.09,1.09,0,0,0,.62-.26l.33-.24a13.2,13.2,0,0,0,1.08-.82,19.18,19.18,0,0,1,4.22-2.91,11.72,11.72,0,0,0,1.13.35c1,.28,2,.57,3.05.79,1.28.28,2.66.5,4.48.74a5,5,0,0,0,.64,0,3.65,3.65,0,0,0,3.37-2.16l.17-.29a2.92,2.92,0,0,0,.32-.63,1.07,1.07,0,0,1,1.07-.76H709l6.07.18a2.79,2.79,0,0,1,.71,1.73,2.25,2.25,0,0,0,1.4,1.83,6.43,6.43,0,0,0,2.78.65A6,6,0,0,0,724.2,200a22.66,22.66,0,0,0,2-2.33,16.77,16.77,0,0,1,2.41-2.5c.67-.58,1.37-1.12,2.08-1.66.45-.35.91-.7,1.35-1.06a1.09,1.09,0,0,1,.67-.27.75.75,0,0,1,.47.17,2.06,2.06,0,0,0,1.32.49,3,3,0,0,0,1.3-.34,2.64,2.64,0,0,1,.44-.15l.14,0a2.33,2.33,0,0,1,.58,1.27,4.27,4.27,0,0,0,.32,1l1,.6a2.13,2.13,0,0,1,0,1.3l-.25.11-.71.31-.15.07a3.31,3.31,0,0,0-.65.35,1.3,1.3,0,0,0-.39,1.74,2.9,2.9,0,0,0,.2.35c0,.11,0,.26-.08.41a4.09,4.09,0,0,0-.13.93,1.49,1.49,0,0,0,.57,1.12c.53.46.53.46.12,1.21a1.29,1.29,0,0,0-.11.25l-.06.16a2.24,2.24,0,0,1,.19,1.61,1.1,1.1,0,0,0,.26,1,4.25,4.25,0,0,1,.88,1.58c.38,1,.59,1.79-.13,2.57a1.08,1.08,0,0,0-.17,1.14,1.64,1.64,0,0,1,.07.5c0,.11,0,.22,0,.32.09.69.32.94,1,1.1l.38.07a3.71,3.71,0,0,1,.47.09,2.34,2.34,0,0,1,1.24.81.88.88,0,0,1-.24,1.37l-.25.12-.27.14a1.1,1.1,0,0,0-.57.6,1.07,1.07,0,0,0,.23.8,3.86,3.86,0,0,1,.36,3.48c-.08.22-.14.45-.19.69a5.66,5.66,0,0,1-.26.83,5.4,5.4,0,0,1-2.3,2.39l-.25.18-.13.12a1.44,1.44,0,0,0,.15,1.36,1.68,1.68,0,0,1,.23.69,9.16,9.16,0,0,0,.17,1.41c0,.16.06.33.08.49a4.37,4.37,0,0,1-.6,0c-.34,0-.67,0-1-.06l-.58,0-.52,0a2.43,2.43,0,0,0-1.12.23,1.64,1.64,0,0,1-.72.18,1.62,1.62,0,0,1-.69-.16,4.18,4.18,0,0,0-.84-.26l-.3-.07a1.52,1.52,0,0,0-.39-.07c-.67.13-1.23.26-1.78.39l-.57.13-.13.16c0,1.11,0,1.22.91,1.44a2.72,2.72,0,0,1,.75.26.69.69,0,0,1,.28.82c0,.14-.11.27-.17.4a3.14,3.14,0,0,0-.26.69,3.49,3.49,0,0,0,0,.83c0,.09,0,.19,0,.28l-.39.13c-.41.14-.83.27-1.26.38a1.45,1.45,0,0,1-.35,0,.64.64,0,0,1-.26,0,6.35,6.35,0,0,0-1.94-.45,6.74,6.74,0,0,1-1.71-.36,5.89,5.89,0,0,0-1.7-.31c-.27,0-.54,0-.81-.08l-.18.11a1.88,1.88,0,0,1-1,1.21,9.45,9.45,0,0,1-1.3,1.41,6.38,6.38,0,0,0-1.6,2,1.18,1.18,0,0,1-.43.39c-.11.07-.22.15-.33.24l0,.18c0,.06,0,.13.06.2a1.51,1.51,0,0,0,.2.48,1.83,1.83,0,0,1,.21,1.33,2.52,2.52,0,0,0,.56,2,3.23,3.23,0,0,1,.33,3.3.83.83,0,0,1-.28.38,1.38,1.38,0,0,0-.43,1.93,2.6,2.6,0,0,0-1.16,2.11,2.08,2.08,0,0,0,1.12,1.65l0,.29a6.39,6.39,0,0,1,0,.85,1.42,1.42,0,0,1-1,1.44c-.42.15-.83.32-1.23.5-.14.07-.37.28-.35.48a1.34,1.34,0,0,0,.28.56.56.56,0,0,0,.38.19,2.78,2.78,0,0,1,1.75.72.6.6,0,0,0,.41.16,1,1,0,0,0,.6-.24.53.53,0,0,0,.15-.15,1.49,1.49,0,0,1,1.48-.8,5.63,5.63,0,0,1,.59,0l.1.7c0,.13,0,.26,0,.4a2,2,0,0,0,.46,1.33,1.43,1.43,0,0,0,.68.17,2.94,2.94,0,0,0,.78-.13,2,2,0,0,1,.53-.08,1,1,0,0,1,1,.7.9.9,0,0,0,.23.28l.15.15.19,0,1.11-.53.13.06a5.59,5.59,0,0,0,.57.23,1.2,1.2,0,0,0,.37.07c.47,0,.6-.42.68-.84l0-.25c.07,0,.1,0,.11.15a1.3,1.3,0,0,1-.75,1.4,3.49,3.49,0,0,0-.53.3.77.77,0,0,0-.3,1l.09.21a2.52,2.52,0,0,1,.18.57.53.53,0,0,1-.13.41.41.41,0,0,1-.3.15l-.22,0a1.33,1.33,0,0,0-.77.3l-.24.15-2.23-1.32a3.91,3.91,0,0,0-.69-.33.93.93,0,0,0-.3,0,.82.82,0,0,0-.75.51,1.08,1.08,0,0,0-.07.25.78.78,0,0,1,0,.17c-.23.5-.44.56-.6.56a1.2,1.2,0,0,1-.55-.19l-.16-.11a1,1,0,0,0-.4-.2l-.3,0a.76.76,0,0,0-.5.14,9.31,9.31,0,0,0-.84.85,10,10,0,0,1-.74.77c-.62.55-.34,1.26,0,1.82l.19.08,4.06-1.08.64.52.17,0,.86-.41.19.16a2.67,2.67,0,0,0,.7.47,2.45,2.45,0,0,0,.81.13h.2a1,1,0,0,1-.23.91,1.47,1.47,0,0,0,0,1.72,2,2,0,0,1,.33,1.13l0,.31a2.56,2.56,0,0,1,0,.37v.19c0,.26,0,.74.47.89a.71.71,0,0,0,.2,0,.87.87,0,0,0,.71-.47l1-1.54v-.16l-.06-.15a1.34,1.34,0,0,0-.25-.47.72.72,0,0,1,0-1.08,2.57,2.57,0,0,0,.8-1.84,6.29,6.29,0,0,1,1.71.31,9.8,9.8,0,0,0,1.17.28c0,.16,0,.32,0,.48a8,8,0,0,0,0,1.34,5.53,5.53,0,0,0,.25.92,4.91,4.91,0,0,1,.24.9,8.74,8.74,0,0,1,0,1.4c0,.2,0,.41,0,.62l-.31.29a5.62,5.62,0,0,1-.88.73,2.25,2.25,0,0,1-1.17.41,1.63,1.63,0,0,1-.47-.07,2.23,2.23,0,0,0-.64-.11c-.66,0-1.09.4-1.32,1.23-.08.29-.14.59-.21.88l-.08.38.08.18a1.82,1.82,0,0,0,.82.31c.31,0,.59-.19,1.2-.64l.19.3c.25.36.5.55.76.55a.74.74,0,0,0,.62-.47,1.43,1.43,0,0,1,1.45-.74,3.44,3.44,0,0,1-1.13,3.12l-.06.15a4,4,0,0,0,1.87,3.08l.16.09a.91.91,0,0,1,.28.2c.13.18.25.37.37.56s.22.36.34.53a1.8,1.8,0,0,0,.35.34.86.86,0,0,1,.42.6,2.75,2.75,0,0,1-1.14.72c-.19.08-.38.17-.56.27a.65.65,0,0,1-.32.09,1.59,1.59,0,0,1-.59-.17,2,2,0,0,0-.77-.2,1.09,1.09,0,0,0-.31,0,1.29,1.29,0,0,0-.4.85,1.83,1.83,0,0,1-.13.49l0,.19a3.64,3.64,0,0,0,1.85,1c0,.17-.08.34-.12.51a3.48,3.48,0,0,1-.39,1.17,3.08,3.08,0,0,0-.25,1.64c0,.64.09,1.28.16,1.92l.09.85a1.46,1.46,0,0,1,0,.26.55.55,0,0,1-.52.56.67.67,0,0,1-.38-.13,3.92,3.92,0,0,1-.43-.37l-.24-.22h-.21a2.18,2.18,0,0,1-1.34.45h-.25a3.66,3.66,0,0,0-.79.09c-.16,0-.32.06-.48.08l-.33,0a.45.45,0,0,1-.24,0,1.23,1.23,0,0,0-.72-.24,1.87,1.87,0,0,0-.67.15,3.5,3.5,0,0,1-1.19.29h0a3.76,3.76,0,0,0-1.83.56l-.35.18a.68.68,0,0,0,.23,1,2.73,2.73,0,0,0,1.6.57,9.82,9.82,0,0,1,3.09.53,1,1,0,0,0,.34.05,3.12,3.12,0,0,0,.38,0,9.67,9.67,0,0,1,1.15-.08,5.43,5.43,0,0,1,2.25.45,4,4,0,0,0,.9.24l.31.06a2,2,0,0,1-.58,1.16c-.32.36-.67.76-.43,1.33a.66.66,0,0,0,.68.37,2.39,2.39,0,0,0,.87-.2c.31-.13.61-.28.93-.44l.4-.2,1.29.78.23.6c.24.56.47,1.1.74,1.62a1.76,1.76,0,0,0,.69.66.65.65,0,0,0,.34.08.72.72,0,0,0,.36-.09.73.73,0,0,0,.34-.64c-.08-.35-.19-.7-.3-1l-.16-.51a.27.27,0,0,1,0-.25.22.22,0,0,1,.17-.09l.22.06c.61.17,1.19.33,1.42,1l.19.11.95-.17.82,2.56.13.11.26,0c.19,0,.38,0,.56.09a1.54,1.54,0,0,0,.34,0,.72.72,0,0,0,.62-.31.73.73,0,0,1,.64-.33,2,2,0,0,1,.5.08,3.16,3.16,0,0,1,1.42.84l.24.25a1.8,1.8,0,0,0,1,.68c.17,0,.24.19.25.56a2,2,0,0,1-.73,1.52l0,.21a1,1,0,0,0,.89.55,2.5,2.5,0,0,0,.53-.08l.21,0a1.5,1.5,0,0,0,1-.9c1.16.17,1.25.32,1.4,1.16s.35,1.14,1.42,1.21a1.68,1.68,0,0,1,.21,1.69,9.06,9.06,0,0,0-.36,1.62c0,.23-.07.46-.12.68l-.16.86c-.1.55-.37.8-.85.8h0a1,1,0,0,0-.41.08l-.19.06-.12.17c0,.17,0,.35,0,.52a3.88,3.88,0,0,1,0,1.12,4.29,4.29,0,0,1-.44,1.08c-.08.16-.17.32-.24.49l-.64.2-.11.15v1a2.18,2.18,0,0,1-1,.36,3.78,3.78,0,0,0-.6.15,4.16,4.16,0,0,0-1.29,2.67.59.59,0,0,0,.16.45.55.55,0,0,0,.4.21,5.94,5.94,0,0,1,1.66-.31,7.38,7.38,0,0,0,1.17-.16,5.21,5.21,0,0,0,.95-.37l.52-.24c.22,0,.31.36.43.85a.82.82,0,0,1-.39.89c-.11.09-.24.17-.36.25a3.33,3.33,0,0,0-.59.45.79.79,0,0,0,.53,1.33,2.83,2.83,0,0,0,2.5-1.52c.16-.29.3-.6.45-.9l.13-.27.7.3c.47-.07.49-.36.51-.53a.66.66,0,0,1,0-.15c.08-.25.13-.39.19-.44a5.62,5.62,0,0,1,3.35-1.41,3.92,3.92,0,0,1,.81.09,1.45,1.45,0,0,1,1,1.58,4.75,4.75,0,0,1-1,2.58,7.85,7.85,0,0,0-.91,1.4l-.27.48a10.24,10.24,0,0,1-1.9,2.51,6.51,6.51,0,0,0-1.48,2.34c-.14.32-.29.65-.45,1,0,.28,0,.48,0,.67a7.07,7.07,0,0,0,.17,1.31,10,10,0,0,0,1.78,3.31l.12.07,1.62.16.08.13a2.4,2.4,0,0,1,.22.39,1.59,1.59,0,0,0,1.37,1l1.83.19,1.8.18a8.8,8.8,0,0,1,1.82.34,1.19,1.19,0,0,1,.75,1.57,3.54,3.54,0,0,1-2.18,2.56c-.22.08-.44.17-.66.26a5.35,5.35,0,0,1-1.36.44,2.88,2.88,0,0,0-1.24.58c-.58.44-1.14.9-1.7,1.37l-.56.47a4.88,4.88,0,0,1-1.87,1,5.28,5.28,0,0,0-1.82,1c-.19.15-.39.29-.59.43a1.73,1.73,0,0,0-.55,1.12,2.94,2.94,0,0,1-.46,1.14,6.47,6.47,0,0,0-1.11,4.53l0,.34a5.56,5.56,0,0,1,.08.8,2.18,2.18,0,0,1-.76,1.82,2.44,2.44,0,0,0-.64.85.74.74,0,0,0,.67,1.05,2.38,2.38,0,0,0,1.07-.25,5,5,0,0,1,1.76-.51l.19,0a.68.68,0,0,1,.64.37,1.91,1.91,0,0,0,1.75.94h.67A12.62,12.62,0,0,1,758,364a4.26,4.26,0,0,0,.84.06h.38a5.09,5.09,0,0,1,.55,0,7.3,7.3,0,0,1,1.53.3,1,1,0,0,1,.68.53,1,1,0,0,1-.11.82,4.78,4.78,0,0,0-.66,2.15,1.75,1.75,0,0,1-.17.64,5.37,5.37,0,0,0,.29,4.37,8.19,8.19,0,0,0,.62,1.19,4.4,4.4,0,0,1,.89,2.33,2.15,2.15,0,0,0,.35,1,5.9,5.9,0,0,1,.6,4.25,9.37,9.37,0,0,0-.07,2.51,17.37,17.37,0,0,0,.41,2.13l.17.74a39.06,39.06,0,0,1,1,6.75,4.22,4.22,0,0,1-.1,1.11,1.82,1.82,0,0,1-1.78,1.54,2.24,2.24,0,0,1-.9-.2,8.8,8.8,0,0,1-1.14-.65c-1.21-.77-2.31-1.48-3.4-2.21a1.89,1.89,0,0,0-1.1-.39h-.19a7.09,7.09,0,0,1-.92-.08c-.23,0-.46-.06-.69-.07h-.21c-1,0-1.5.53-1.51,1.62a2.49,2.49,0,0,0,0,.47l.35,1.83c.26,1.35.52,2.7.74,4.06A3.38,3.38,0,0,0,756,403a3.72,3.72,0,0,0,.35.22l.17.1a4.06,4.06,0,0,1,.1,1.69l-.06,0a.63.63,0,0,1-.15.17c-1.42.82-1.24,2.16-1.08,3.35,0,.32.11.64.18,1s.11.51.15.77a5.27,5.27,0,0,0,.87,2l.2.33a1.71,1.71,0,0,0,.61.52,14.91,14.91,0,0,0,1.42.79,5.07,5.07,0,0,1,2.37,2.32c.37.68.69,1.38,1,2.08l.12.26a3.89,3.89,0,0,0,1.94,2.05c.38.15.74.33,1.1.52a8.87,8.87,0,0,0,2.14.84,3.47,3.47,0,0,1,1,.48l.41.24a2.58,2.58,0,0,1-.4,2.06,10.85,10.85,0,0,0-.89,1.63l-.09.2c-.33.69-.7,1-1.24,1.1a1.45,1.45,0,0,0-1.33,1.23.9.9,0,0,1-.13.34,18,18,0,0,0-1.64,2.84l-.43.85a1.29,1.29,0,0,1-.43.47,4.34,4.34,0,0,0-1.84,2.87,36.61,36.61,0,0,1-1.86,5.5,7.79,7.79,0,0,0-.78,3.47c0,.38-.17.63-.63.79s-1.11.4-1.64.65a.93.93,0,0,0-.53,1.15,7.38,7.38,0,0,0,.27,1,3.45,3.45,0,0,1-.2,2.71l-.26.56a9.48,9.48,0,0,1-1.34,2.34,2.43,2.43,0,0,0-.37.65,1.57,1.57,0,0,1-.54.77c-.27.18-.3.73-.25,1a5.4,5.4,0,0,1,0,1.35,5,5,0,0,0,.1,1.7,1.55,1.55,0,0,1-.18.82,2.76,2.76,0,0,0-.07,1.87l.33,1.14c.28,1,.56,1.95.82,2.93a1.91,1.91,0,0,0,.77,1,10.09,10.09,0,0,0,.93.67l.34.23.07.77c.05.67.11,1.35.21,2a5.24,5.24,0,0,0,.51,1.71,5,5,0,0,1,.44,2.29c0,.26,0,.52,0,.78,0,.07-.09.2-.17.31l-.08.11a1.56,1.56,0,0,0-.57-.12,1.26,1.26,0,0,0-.83.32,11.31,11.31,0,0,1-3.27,1.7l-.59.23a2,2,0,0,1-.69.16l-.19,0a3.06,3.06,0,0,0-.85-.11,7.62,7.62,0,0,0-1,.09l-.51.06Z" transform="translate(-358.73 -166.52)"/><path class="cls-1" d="M453.28,416.21a2.85,2.85,0,0,1-2.35-.89c-.65-.75-1.06-1.1-1.64-1.1a3.92,3.92,0,0,0-1.45.43,4.42,4.42,0,0,1-1.77.5l-.33,0v-.06a1.89,1.89,0,0,1,0-.33c0-1-.07-1.27-1.06-1.53a2.19,2.19,0,0,1-1.82-2.23,3.14,3.14,0,0,0,0-.32v-.09a3.18,3.18,0,0,0,.75-2.61.75.75,0,0,1,.21-.66,1.87,1.87,0,0,0,.46-1.91l-.08-.28a2.67,2.67,0,0,0-1.36-2,2.19,2.19,0,0,1-1.31-2.54,1.26,1.26,0,0,0-.45-1,2.11,2.11,0,0,1-.72-1.26,1.71,1.71,0,0,0-.72-1.1l-.28-.26c-.45-.46-.91-.91-1.41-1.4l-.68-.67a.8.8,0,0,0-.25-.07,2,2,0,0,1-.6-.15,1.65,1.65,0,0,0-.71-.18,1.73,1.73,0,0,0-1.29.71l-.51.6c-.2.25-.41.49-.62.73s-.31.27-.43.27a.82.82,0,0,1-.46-.23l-.11-.11a.94.94,0,0,0-.24-.2,1.78,1.78,0,0,1-1-1.78l.17-.13.62-.46a1.61,1.61,0,0,0,.73-1.93c-.2-.71-.45-1.58-1.53-1.8a1.06,1.06,0,0,1-.52-.48,3.72,3.72,0,0,1-.29-.58c-.07-.15-.13-.31-.21-.45a1.45,1.45,0,0,0-.5-.63,5.44,5.44,0,0,1-1.48-1.36l-.16-.19a10.37,10.37,0,0,0-2.13-1.83c-.28-.19-.55-.38-.81-.6a1,1,0,0,1-.44-1.12,5.44,5.44,0,0,0,.11-.75,1.42,1.42,0,0,0-.31-1.1,1,1,0,0,0-.79-.33,1.61,1.61,0,0,0-.57.11.79.79,0,0,0-.16.08,1.61,1.61,0,0,1-.84.35c-.31,0-.65-.22-1.24-.81a2.71,2.71,0,0,1-.54-3.18,6.75,6.75,0,0,0,.66-4.05,4.66,4.66,0,0,1,.34-2.77,3.92,3.92,0,0,0,.31-2.22l-.06-.56a10.53,10.53,0,0,0-.33-2l0-.1.07,0,.49.23a1.58,1.58,0,0,0,.7.17,1.32,1.32,0,0,0,1.17-.64,1,1,0,0,0,0-.83,8.51,8.51,0,0,0-.74-1.29,2.94,2.94,0,0,1-.42-2.25c.11-.73.15-1.48.19-2.2l0-.28a2,2,0,0,0-.07-.53l0-.19a2.06,2.06,0,0,0-1.52-.49h-.22a1.32,1.32,0,0,0-.94.47c-.29.27-.53.49-.78.7l-.06-.14a3.09,3.09,0,0,1-.2-.51c-.05-.21-.09-.43-.13-.64s-.08-.43-.13-.65a1.25,1.25,0,0,0-1.19-1H417a1.08,1.08,0,0,0-1,.74c-.15.32-.27.64-.4,1s-.21.53-.32.79a.29.29,0,0,1-.27.14.26.26,0,0,1-.2-.08,4.37,4.37,0,0,1-.38-.56l-.09-.14a1.75,1.75,0,0,0-1.21-.95l-.64.37-1.67,1.14a1,1,0,0,0-.31.41l-.26.55c-.31.66-.62,1.31-.89,2a2.52,2.52,0,0,1-.8,1.22l-.05,0a2.25,2.25,0,0,1-.31-.15,3.61,3.61,0,0,0-1.88-.55,3.53,3.53,0,0,0-2.22.82c-.19.15-.37.31-.54.48a6.77,6.77,0,0,1-.9.73c-.87.55-1.76,1.07-2.65,1.6l-1,.61-.29-.09c-.26-.09-.52-.17-.78-.23a5.73,5.73,0,0,0-1.18-.2h0a1.1,1.1,0,0,0-1.22,1.11c0,.18,0,.37,0,.55s0,.32,0,.47a5.34,5.34,0,0,1-.15.83.77.77,0,0,1-.12.21l0,0-.29-.17c-.32-.19-.64-.37-.94-.57a3.76,3.76,0,0,0-1.85-.65c-.38,0-.76-.08-1.14-.13l-.59-.08-.33,0-.16,0a4.13,4.13,0,0,1-.93.11,7.78,7.78,0,0,1-3.51-1.16l-.27-.14a.83.83,0,0,1-.51-.9,5.45,5.45,0,0,1,.26-1.23,2.65,2.65,0,0,0,.1-1.67,10.35,10.35,0,0,1-.2-1.19l-.07-.48.41-.25,1.14-.7.66-.4a12.62,12.62,0,0,0,1.56-1c4.45-3.66,9.29-7,14-10.16l1.41-1c3.11-2.13,6.2-4.3,9.28-6.47l5-3.49a12.58,12.58,0,0,1,1.6-1l3.62-1.77c1.95-.95,3.89-1.89,5.82-2.87s3.81-2.06,5.64-3.11l.37-.21c1.47-.84,2.92-1.71,4.38-2.58l6.67-4,2.68-1.58,3.73-2.21a4.59,4.59,0,0,0,.94-.75,61.65,61.65,0,0,0,4.4-5.1c1-1.29,2-2.57,3-3.85.8-1,1.6-2,2.39-3a2.17,2.17,0,0,1,1.28-.71,60.06,60.06,0,0,0,8.82-3.1c.77-.34,1.56-.66,2.34-1l2.88-1.18c1.77-.73,3.53-1.46,5.3-2.18,1-.39,1.92-.75,2.88-1.11l1.2-.46.23-.07a1.53,1.53,0,0,0,.49-.2,1.94,1.94,0,0,1,1.15-.39,2.77,2.77,0,0,1,1.39.45l.29.16a1.21,1.21,0,0,0-.36-.08.52.52,0,0,0-.48.3,1.51,1.51,0,0,0-.19.92,1.7,1.7,0,0,0,.4.71,5.26,5.26,0,0,0,.46.51l.22.22c0,.22-.18.3-.43.41a1.8,1.8,0,0,0-.36.19,5.15,5.15,0,0,1-.84.51,1.08,1.08,0,0,0-.66,1.24,1.72,1.72,0,0,0,.33.64l.1.15a.62.62,0,0,0,.34.22,15.78,15.78,0,0,1,4,2l.15.1a3.78,3.78,0,0,0,1.29.46,2.41,2.41,0,0,0,.47,0l.62,0v.11a.83.83,0,0,1-.06.36l-.18.29a5.85,5.85,0,0,1-2,2.27,2,2,0,0,0-.66.68,1.24,1.24,0,0,0-.16,1.1,1.3,1.3,0,0,0,.87.77,1.15,1.15,0,0,0,.33.07,11.81,11.81,0,0,1,2.78.49l1,.26a8,8,0,0,0,1.74.21,6.21,6.21,0,0,0,1.81-.26,2,2,0,0,1,.58-.07l.51,0h.31a2.82,2.82,0,0,0,1.56-.44,2.23,2.23,0,0,0,.16-.38,2.77,2.77,0,0,0,.17-.8,2.68,2.68,0,0,1,1.11-2.1l.46.17a3.1,3.1,0,0,0,1.09.29,2.16,2.16,0,0,0,1.16-.54c.13-.1.26-.19.39-.28a1.11,1.11,0,0,1,.58-.2.83.83,0,0,1,.46.15,2.71,2.71,0,0,0,.37.19l.13.06a1.92,1.92,0,0,0,1.78-1.88,7.75,7.75,0,0,0,0-1.77,1.09,1.09,0,0,1,.08-.8.37.37,0,0,1,.29-.1,1.87,1.87,0,0,1,.53.1,3.05,3.05,0,0,1,.82.47c.17.12.32.26.48.39s.34.3.53.43l.21.14a3.79,3.79,0,0,1,1.07,1,1.8,1.8,0,0,0,.59.54,1.54,1.54,0,0,0,.76.21,1.14,1.14,0,0,0,1.16-1,3.75,3.75,0,0,1,1.18-2.32,3.49,3.49,0,0,0,.88-1.93,2.27,2.27,0,0,1,1.09-1.5.62.62,0,0,1,.35-.12.49.49,0,0,1,.36.16,1,1,0,0,1,.32.67.33.33,0,0,1-.12.25,4.42,4.42,0,0,0-1.29,1.84,2.85,2.85,0,0,0,0,2.31,1.65,1.65,0,0,0,.32.19,2.47,2.47,0,0,0,.59.2,4.16,4.16,0,0,1,2.38,1.65,1.22,1.22,0,0,1,.24,1.33,2.63,2.63,0,0,0-.25.74,2,2,0,0,0,.07.93c.14.36.31.7.48,1s.22.45.32.67a2.17,2.17,0,0,0,1.3,1.07,2.06,2.06,0,0,1,1.14,1.44.4.4,0,0,1-.22.53c-.22.1-.45.17-.67.25a7.25,7.25,0,0,0-.83.32,16.21,16.21,0,0,1-3.13,1.07,4.32,4.32,0,0,0-3.36,2.71,1.54,1.54,0,0,0,1.27,1.2l.17.06c1.32.45,1.37.47,2.12,1.87l-.13.28a4.25,4.25,0,0,1-.44.83c-.44.59-.9,1.15-1.37,1.72l-.64.78-1.46,1.82c-.24.3-.48.59-.74.87a1.49,1.49,0,0,0-.19,2.16,1.67,1.67,0,0,0,.27.27,1.27,1.27,0,0,1,.23.24,4.32,4.32,0,0,1,.31.59l.07.14a2.34,2.34,0,0,1-.65.09,2.88,2.88,0,0,1-1.12-.25l-.62-.26c-.38-.17-.76-.33-1.14-.47a1.46,1.46,0,0,0-.51-.09,1.38,1.38,0,0,0-1.36,1.31,3.7,3.7,0,0,0,0,.62l0,.2-.21.11a2.37,2.37,0,0,1-.59.24,5.16,5.16,0,0,0-1.88.93,2.37,2.37,0,0,0-.58.52,1.47,1.47,0,0,0-.38,1.2,1.51,1.51,0,0,0,.89.92l.43.2c.21.09.41.19.61.3a4.62,4.62,0,0,0,2.39.63h1.77a7.52,7.52,0,0,1-.6.53l-.26.22a.92.92,0,0,0-.24,1.13.85.85,0,0,0,.77.45,1.08,1.08,0,0,0,.46-.11c.33-.15.65-.32,1-.52l.29-.15v0a1,1,0,0,1,0,.38,3.71,3.71,0,0,1-.36.57l-.18.26a.7.7,0,0,0,0,1,.92.92,0,0,0,.63.28.82.82,0,0,0,.36-.09l.37-.21a3.47,3.47,0,0,1,.51-.26.94.94,0,0,1,.33-.07c.16,0,.38.06.48.58l0,.16c.15,1.15.24,1.23,1.25,1.46l.25.08h0l0,.25a8.13,8.13,0,0,0-.12.95.72.72,0,0,0,.35.65.89.89,0,0,0,.29,0,1.39,1.39,0,0,0,.5-.1.74.74,0,0,0,.28-.24.57.57,0,0,1,.15-.15.8.8,0,0,1,.31-.08,7,7,0,0,1,1.27,1c.19.19.14.4,0,.73l-.06.22V345a.86.86,0,0,0,.94.61,1.7,1.7,0,0,1,.42,0c0,.07,0,.15,0,.22a2,2,0,0,1-.1.69,2.13,2.13,0,0,0,.53,2.7l0,.11c-.14.19-.34.23-.65.27a1.36,1.36,0,0,0-.68.22l-.17.13a2.9,2.9,0,0,1-1,.59,2,2,0,0,1-.55.08,1.92,1.92,0,0,1-.74-.16,1.35,1.35,0,0,0-.51-.11c-.28,0-.78.13-1,1-.24,1.09-.67,1.48-1.63,1.48H520l-.54,0a3.52,3.52,0,0,0-.5,0,1.24,1.24,0,0,0-.93.55,1.2,1.2,0,0,0,0,1,5.78,5.78,0,0,0,.3.64l.1.2-.12.07-.52.29a1.57,1.57,0,0,0-.87.93,2.38,2.38,0,0,1-1.06,1.37,2.19,2.19,0,0,0-.46.46l-.22.25,0,.19.75,1.3h-.58a.91.91,0,0,0-.72.2c-.19.22-.14.59-.06,1.21a.72.72,0,0,1,0,.23h0l-.18-.06a3.54,3.54,0,0,0-.81-.21h0a1.62,1.62,0,0,0-.88.23.78.78,0,0,0-.35.58.86.86,0,0,0,.23.7,2.11,2.11,0,0,0,.32.25l.16.11.36.28-1.48.81-.09.16.07.92,0,0a3.68,3.68,0,0,0-.31.25,1.37,1.37,0,0,0-.52,1.46,1.12,1.12,0,0,1-.22,1.07c-.6.91-.59,1,.16,1.81l.16.14a1.19,1.19,0,0,1,.16.15.75.75,0,0,1,0,1c-.18.19-.38.37-.58.54l-.27.24a1.14,1.14,0,0,0-.43,1,1.32,1.32,0,0,0,.73.95,2,2,0,0,0,1,.28,1.84,1.84,0,0,0,.4,0s.1.17.15.28h0s-.09.08-.12.09a10.36,10.36,0,0,1-1.11.3l-1,.21c-.63.13-1.27.27-1.89.44a5.86,5.86,0,0,0-1.36.63c-2,1.14-4,2.29-5.93,3.47a13.94,13.94,0,0,0-1.42,1l-.24.19c-.65.51-1.3,1-1.93,1.58a2.52,2.52,0,0,1-1.72.62h-.28l-.93,0-.92,0h-.15a2.1,2.1,0,0,0-1.53.6c-.37.35-.76.68-1.16,1s-.63.53-.93.81a4.4,4.4,0,0,1-1.55.95c-1.13.39-2.25.81-3.38,1.24l-1,.38-.94.37-.58.23-.09.22.81,2-1.09.83-.06.17.33,1.32-.15.13a5.3,5.3,0,0,1-.51.41l-1,.65c-1,.67-2,1.37-3.06,2a19.54,19.54,0,0,0-4.62,3.86q-1.59,1.81-3.21,3.59a2.82,2.82,0,0,1-.75.59,12,12,0,0,0-3.92,3.33,13,13,0,0,1-4.35,3.71,5.36,5.36,0,0,0-.47.28c-1,.62-1,.72-1,1.81h0l-.4.05-.31.08-.15,0-.19.2a1.65,1.65,0,0,0-.24.37,2.32,2.32,0,0,1-1.9,1.35l-.65.15a7.43,7.43,0,0,1-1.46.25Z" transform="translate(-358.73 -166.52)"/><path class="cls-1" d="M384.57,358.92c-.27-.14-.53-.29-.79-.45a5,5,0,0,0-2.55-.93l-.35,0-.78-.79a21.08,21.08,0,0,1-1.77-1.9,6.64,6.64,0,0,1-1.62-4.87,5.09,5.09,0,0,0,0-.76v-.14a2,2,0,0,0-1.24-1.86,8.32,8.32,0,0,0-3.1-1,1.75,1.75,0,0,1-.35-.07l-.12,0a2.44,2.44,0,0,1,.09-2.05,3.41,3.41,0,0,1,.16-.31,2.68,2.68,0,0,0,.22-.48,1.32,1.32,0,0,0-.19-1.14.91.91,0,0,0-.73-.39h0a2.22,2.22,0,0,1-1.78-1,11.42,11.42,0,0,1-.78-1.05l-.35-.5a2.83,2.83,0,0,1,.55-1l.15-.21a1.05,1.05,0,0,0,.16-1.08.88.88,0,0,0-.83-.44l-.34,0a2,2,0,0,1-1.35-.67,13.52,13.52,0,0,0-1.15-.92,3.75,3.75,0,0,1-1.4-1.71,8.92,8.92,0,0,1-.77-2.9,7.72,7.72,0,0,0-1.62-4.26c-.56-.78-1.05-1.62-1.47-2.33-.11-.18-.21-.37-.31-.56a7.07,7.07,0,0,0-.93-1.45,1.71,1.71,0,0,1-.51-1.17l.19-.16.63-.51a2.64,2.64,0,0,0,1-1.69,1.86,1.86,0,0,1,.81-1.33,1.42,1.42,0,0,0,.35-.35,2.09,2.09,0,0,1,1.46-.9,2.14,2.14,0,0,0,1.43-.87,3.49,3.49,0,0,1,1-.76l.26-.16a16.35,16.35,0,0,1,1.64-.88c.48-.24,1-.47,1.43-.75s.65-.38.73-.63a3.82,3.82,0,0,1,1.87-2l.47-.32a22.82,22.82,0,0,0,3.55-3,5.15,5.15,0,0,1,1-.76c.18-.12.38-.22.58-.33a2.62,2.62,0,0,0,1.54-1.49l1.36-.89.65-.45.76.53.14,0c1.28-.39,1.3-.53,1.09-1.93v-.06l.62-.51c.57-.46,1.15-.94,1.76-1.38.16-.12.32-.25.47-.38a3.7,3.7,0,0,1,1.16-.75,2,2,0,0,0,.79-.7,4.92,4.92,0,0,1,1.31-1.11l.37-.23a3.57,3.57,0,0,0,1.47-1.29,6.47,6.47,0,0,0,1.61-1.3,8.58,8.58,0,0,1,1.33-1.15,3.78,3.78,0,0,0,.73-.68,4.44,4.44,0,0,1,.54-.53c1.17-.92,2.31-1.81,3.49-2.6a6.59,6.59,0,0,0,1.08-1,5.93,5.93,0,0,1,1.07-.95,5.06,5.06,0,0,0,.5-.38,3.24,3.24,0,0,1,.65-.46,5.48,5.48,0,0,0,2.11-1.53,2.26,2.26,0,0,0,.65.1,2.33,2.33,0,0,0,1.76-.93l1.31-1.51.12,0a2.46,2.46,0,0,0,.4,0h.14c.49-.06.83-.12.93-.34a1.82,1.82,0,0,1,.72-.72,2.38,2.38,0,0,0,.78-.74,3.52,3.52,0,0,1,.89-.88c.19-.15.37-.29.54-.45l.9-.87c.39-.38.79-.77,1.19-1.14a3.28,3.28,0,0,1,.79-.52,19.6,19.6,0,0,0,1.72-1c.1-.08.19-.16.28-.25a1.24,1.24,0,0,1,.88-.47h.06v.07a4,4,0,0,0,.11.46c.22.71.5,1.15,1.17,1.15a2.49,2.49,0,0,0,.5-.06,4.77,4.77,0,0,1,1-.13,2.24,2.24,0,0,1,.65.09,1.72,1.72,0,0,0,.5.08,1.64,1.64,0,0,0,1.26-.62,2.89,2.89,0,0,1,.27-.27l.11-.11.18,0a3.65,3.65,0,0,1,.55.11,7.75,7.75,0,0,0,2.3.31,19.67,19.67,0,0,0,2.12-.15,3.48,3.48,0,0,0,.75-.17,1.55,1.55,0,0,0,1.19-1.38c0-.24.06-.48.09-.72s.07-.48.1-.72a.68.68,0,0,1,.43-.65c.75-.26,1.51-.49,2.28-.74l.77-.24c0,.22.08.43.11.65a4.71,4.71,0,0,0,.95,2.55l.15.06.26,0a2.39,2.39,0,0,0,.61-.11c.37-.14.76-.26,1.14-.37A8.27,8.27,0,0,0,440,272.1a2.38,2.38,0,0,0,1.11-1.93,2,2,0,0,1,1-1.5,3.2,3.2,0,0,1,1.85-.59,3.06,3.06,0,0,1,.65.07,2.2,2.2,0,0,0,.47.06,1.36,1.36,0,0,0,1.25-.84,1.72,1.72,0,0,0,.12-.31l0-.05a2.28,2.28,0,0,0,1.91-.84,1.67,1.67,0,0,1,.75-.41l.31-.12c0,.11,0,.19.05.27s0,.13,0,.2a1,1,0,0,0,.18.55c.36.4.67.59.93.59h0a2.31,2.31,0,0,1,.82.18,2.6,2.6,0,0,0,.87.2,1.33,1.33,0,0,0,.64-.16,2.47,2.47,0,0,0,1.55-2.46,1.6,1.6,0,0,1,.32-1.25,1,1,0,0,0,.07-.84,2.15,2.15,0,0,0-.31-.56l-.07-.1a7.76,7.76,0,0,1,2.14-1.73,1.16,1.16,0,0,0,.55-.45l.11-.14a2.47,2.47,0,0,1,.55-.43,4,4,0,0,0,.46-.33l.27-.23a15.8,15.8,0,0,0,1.57-1.47,2.7,2.7,0,0,1,1.19-.68l.14-.17c0-.76.44-1.13,1-1.56a6.74,6.74,0,0,0,.57-.48l1.59.71h.14c1.45-.67,1.55-.84,1.4-2.81l0,0a5.69,5.69,0,0,0,.48-.36,8.93,8.93,0,0,0,1.61-1.71,4.36,4.36,0,0,1,1-.92l.4-.32a1.64,1.64,0,0,1,1,.76l.15.2.13.06a4.07,4.07,0,0,0,3.26-1.31,7.76,7.76,0,0,1,1.91-1.69l.27.15a3.47,3.47,0,0,0,.94.42,1.4,1.4,0,0,0,.31,0,3.88,3.88,0,0,0,.61-.07l.4-.06c.12.12.11.3,0,.68a1.48,1.48,0,0,0,.11,1.26.86.86,0,0,0,.71.29,2.6,2.6,0,0,0,.67-.11c.34-.09.66-.21,1-.33l.67-.23a1.71,1.71,0,0,1,.52-.08,1.76,1.76,0,0,1,1.77,1.63c.05.85,0,1.72,0,2.61a3.73,3.73,0,0,0,.65,2.45,2.56,2.56,0,0,1,.26.5l.09.21-.48,1a1.87,1.87,0,0,0,.56,2.64,6.07,6.07,0,0,0,.88.64l.45.3.52.36c1,.71,1.13.77.93,2.56a2.74,2.74,0,0,0,0,.77,23.46,23.46,0,0,1-.26,7.69l.13.35a3.68,3.68,0,0,0,.33.64,3.81,3.81,0,0,1,.71,2.36,2.07,2.07,0,0,0,1.22,1.89,3.75,3.75,0,0,0,1,.4,5.11,5.11,0,0,1,2.91,2.12c.32.42.62.86.92,1.3a.3.3,0,0,1,.06.26.51.51,0,0,1-.33.26,1.25,1.25,0,0,1-.47.09,2.81,2.81,0,0,1-1.06-.3l-.19-.08a2,2,0,0,0-1.38,2.16,6.28,6.28,0,0,0,.53,2.48,2.14,2.14,0,0,1,.11,1.44,9.67,9.67,0,0,1-2.15,4,3.16,3.16,0,0,0-.73,1.42l-.94.37-2.24.88-2.67,1.11c-1.63.68-3.25,1.36-4.9,2-1.31.5-2.6,1-3.89,1.59a70.75,70.75,0,0,1-7.53,2.84l-1,.31a12.19,12.19,0,0,1-1.94.54,2.73,2.73,0,0,0-1.73,1.18c-2.1,2.71-4.36,5.57-7.34,9.27a18.4,18.4,0,0,1-2.18,2.31,17.86,17.86,0,0,1-2.58,1.85c-2.08,1.25-4.16,2.45-6.19,3.57-1.33.74-2.64,1.56-3.9,2.35-.9.57-1.8,1.13-2.71,1.67l-.91.54c-2.29,1.36-4.67,2.76-7.07,4s-4.77,2.38-7.12,3.49l-2.73,1.3a18.2,18.2,0,0,0-2.89,1.75c-1.59,1.17-3.2,2.29-4.82,3.41l-1.27.88L404,345.25l-1.61,1.09c-.67.45-1.35.91-2,1.37L400,348c-2.55,1.78-5.09,3.56-7.61,5.38-.76.54-1.48,1.13-2.21,1.72L389,356l-.56.44c-.53.42-1.07.86-1.64,1.23s-1,.6-1.58.9Z" transform="translate(-358.73 -166.52)"/><path class="cls-1" d="M644.27,363.59a2.54,2.54,0,0,1-.7-.1L642,363c-.93-.25-1.85-.5-2.77-.79a31.77,31.77,0,0,0-6-1.18q-1.38-.16-2.74-.37a1.39,1.39,0,0,1-.39-.15l-.06,0a4.14,4.14,0,0,1,2.61-1.52,23.14,23.14,0,0,0,5.06-1.5l.69-.26a1.37,1.37,0,0,0,1-1.35c0-.57.07-1.13.13-1.72l.07-.8-.1-.17c-1.77-.76-3.57-1.39-5.32-2-.9-.31-1.79-.63-2.67-1l-4.55-1.67-3.54-1.29-7.94-2.95-7.82-2.94v0a.79.79,0,0,1,.17-.25c.43-.33.86-.67,1.29-1a24.49,24.49,0,0,1,3.55-2.48,3.42,3.42,0,0,0,2.06-3,15.54,15.54,0,0,0-2.56-3.12l-.44-.39c-.93-.83-1.89-1.68-2.79-2.56a4.18,4.18,0,0,0-2-1.07,7.21,7.21,0,0,0-1.72-.28,2.56,2.56,0,0,0-2,.89l-.33-.18a5.88,5.88,0,0,1-.75-.45,1.5,1.5,0,0,0-.9-.36,1.22,1.22,0,0,0-.63.18h-.18a1.94,1.94,0,0,1,.42-.85c.08-.11.16-.22.23-.34a7.41,7.41,0,0,0,1-2.78,11.22,11.22,0,0,1,1.75-4.52,13,13,0,0,1,2.92-3.34c1-.81,2-1.66,3-2.52l1-.89a2.28,2.28,0,0,0,.29-.32l.13-.17,0-.15-.35-1.5,1.32-1.64,0-.18-.17-.33a6.59,6.59,0,0,0-.34-.64,4.37,4.37,0,0,0-.39-.5l-.22-.25-.16-.06-.52.1a10.58,10.58,0,0,0-1.19.26,5.8,5.8,0,0,1-1.68.27,4.6,4.6,0,0,1-.56,0l-.33,0a3.26,3.26,0,0,0-1.32.3l-1.35.56c-.59.24-1.18.47-1.75.73a3.42,3.42,0,0,1-1.43.33,3.3,3.3,0,0,1-1-.16l-.5-.14a5,5,0,0,1-.87-.28,1.52,1.52,0,0,0-.64-.16,1.32,1.32,0,0,0-1,.53,2.7,2.7,0,0,1-1-.65,3.15,3.15,0,0,0-1.19-.75l-.2.09-.64,1.4a7.33,7.33,0,0,1-2.3-2.07l.17-.34a5.08,5.08,0,0,0,.45-1,5.37,5.37,0,0,0,.14-1.12c0-.14,0-.28,0-.41l.38-.32,1.42-1.39.07-.2v-.24l-.73-1c-.56-.77-1.15-1.56-1.65-2.39s-.92-1.68-1.37-2.59c-.2-.4-.4-.8-.6-1.21l-.2-.08-.31.1c-.21.07-.4.13-.57.2a1,1,0,0,0-.25.16l-.13.1c-2,1.13-2.42,1.4-3.9,1.4-.48,0-1.05,0-1.81-.06a1.39,1.39,0,0,1-.5-.76c0-.11-.09-.23-.14-.33a5.54,5.54,0,0,0-1.94-2.59v-1.69l1.51-1.39,3.69-3.38q2.95-2.73,5.88-5.48l3.19-3c2.15-2,4.37-4.16,6.61-6.17a98,98,0,0,0,10-10.67l11.7-14.13q6.75-8.13,13.51-16.25a2.2,2.2,0,0,0,.57-2c-.15-.73-.28-1.46-.41-2.19-.05-.31-.08-.53-.11-.79l0-.14h0a2.55,2.55,0,0,1,.37.26l4.3,4,3.39,3.1,5.32,4.87c1.94,1.78,3.87,3.57,5.77,5.38a47.15,47.15,0,0,0,6,4.62l.33.25.11.08-.1.18a3.18,3.18,0,0,0-.24.49,5.29,5.29,0,0,1-2.83,2.84l-.23.13a4.26,4.26,0,0,0-1.56,1.19,4.51,4.51,0,0,0-.75,1.88,4.26,4.26,0,0,0-2.14,2.32,2.78,2.78,0,0,1-1.16,1.32,2.33,2.33,0,0,0-1.14,1.61c-.17.66-.33,1.33-.45,2s-.35.84-.74.91a3.8,3.8,0,0,0-2.94,2.57,14.31,14.31,0,0,1-1.58,2.58l-.17.23a7.74,7.74,0,0,0-1.4,2.62,1.32,1.32,0,0,1-.32.48l-.13.15a3.24,3.24,0,0,0-.84,3,1.86,1.86,0,0,1,0,.38,1.93,1.93,0,0,0,.06.49,2.93,2.93,0,0,1-.2,2.14v.14l.56,1.15-.36.41a9.32,9.32,0,0,1-1,1.06,3.5,3.5,0,0,0-1,1.51,4.1,4.1,0,0,0-.21,1.7,4.94,4.94,0,0,1-.07,1.2l.32.78c.3.66.6,1.32.92,2a1,1,0,0,0,.52.46,2.65,2.65,0,0,1,1.06.89l.17.2a1.47,1.47,0,0,0,1.15.59h0a2.12,2.12,0,0,0,.71-.14,4.49,4.49,0,0,1,1.49-.25,6.7,6.7,0,0,1,2.31.46.68.68,0,0,1-.1.44,1.25,1.25,0,0,0-.09.26,4.78,4.78,0,0,0,.2,2.53,2.19,2.19,0,0,0,1.27,1.3,1.14,1.14,0,0,0,.51.12,1.72,1.72,0,0,0,.89-.31,1,1,0,0,1,.24-.09l.12,0,.2.11a1.65,1.65,0,0,1,.51.34,4.52,4.52,0,0,0,2.28,1.4,1.8,1.8,0,0,1,.41.21l.16.09,0,.16a3.06,3.06,0,0,1-.15.51,1.18,1.18,0,0,0,.06,1.15,1.32,1.32,0,0,0,1.1.57,1.3,1.3,0,0,0,.37-.05,1.89,1.89,0,0,0,1.31-.81.67.67,0,0,1,.59-.39.74.74,0,0,1,.32.08,4.71,4.71,0,0,0,1.73.37h.17a.88.88,0,0,1,.79.69,1.91,1.91,0,0,1-.32,2.25l-1.37,1.39,0,.13a.6.6,0,0,0,.06.43,4.28,4.28,0,0,1,.63,3.08,1.83,1.83,0,0,0,.6,1.7,4.66,4.66,0,0,1,1.47,2,1.29,1.29,0,0,0,.72.67,5.79,5.79,0,0,1,1.51.75.79.79,0,0,0,.48.12l.35,0,.43,0a1.25,1.25,0,0,1,.92.32,2,2,0,0,0,.83.36l.16,0a1.24,1.24,0,0,1,.75.59c-.05.25-.09.59-.13.93a17,17,0,0,0-.16,2.38,4.55,4.55,0,0,0,.46,1.61l.15.37c.23.57.48,1.12.74,1.68l.28.61-.81,1.18,0,.13a9.26,9.26,0,0,0,2.3,4.55,6.29,6.29,0,0,1,.59.76l.16.22a1.46,1.46,0,0,1-.64.22,3.69,3.69,0,0,1-.89-.2l-.16,0a2.84,2.84,0,0,0-.76,2.79.83.83,0,0,0,.44.57,2.93,2.93,0,0,1,1,.69,3.19,3.19,0,0,0,.85.63,1.51,1.51,0,0,1-.31,1.2,2.34,2.34,0,0,0-.42,1.29,3.81,3.81,0,0,1,.29,3,1.38,1.38,0,0,0,.16.87l.08.2c.1.29.22.57.33.86s.31.78.44,1.18a.92.92,0,0,1,0,.39l0,.14h-1.19a.8.8,0,0,0-.12-.12c-.16-.16-.31-.33-.46-.5a5.47,5.47,0,0,0-1.1-1,2,2,0,0,0-1.11-.33,2.38,2.38,0,0,0-1.28.4,3.89,3.89,0,0,0-.62.54l-.24.24a.7.7,0,0,1-.09-.31c-.15-.64-.33-1.11-.88-1.11a1.74,1.74,0,0,0-.57.12c-.51.18-1,.4-1.51.64l-.71.32a2.41,2.41,0,0,1-1.25-1.33,1.22,1.22,0,0,0-1.1-.86l-.21,0a1.37,1.37,0,0,0-1.17,1,5.19,5.19,0,0,1-.93,1.89c-.79,1-.77,1.65.1,2.79a1.07,1.07,0,0,1,.23.41A1.64,1.64,0,0,0,660,344a4.22,4.22,0,0,1,.73.66.6.6,0,0,1,.16.5.68.68,0,0,1-.37.47,1.59,1.59,0,0,1-.49.18,1.87,1.87,0,0,0-1.55,1.59,2.65,2.65,0,0,0,.38,2.33,8,8,0,0,0,2,1.93c.16.55.07.94-.34,1.18-1.2.72-1.3,1.88-1.4,3v.18a6,6,0,0,0,0,1c0,.13,0,.27,0,.4l-.22.1c-.24.12-.49.23-.72.37l-.12.07a5.23,5.23,0,0,0-1,.69,1.13,1.13,0,0,0-.15,1.53l.43.73a35.92,35.92,0,0,1-5,1.24c-1.43.27-2.87.51-4.31.75l-3.32.57A3,3,0,0,1,644.27,363.59Z" transform="translate(-358.73 -166.52)"/><path class="cls-1" d="M544.8,278.6a3.35,3.35,0,0,1-.93-2.91,2.22,2.22,0,0,0,0-.79.92.92,0,0,1,.78-1.11,2.14,2.14,0,0,0,1.36-1.22c.35-.67.72-1.33,1.1-2a25.28,25.28,0,0,0,2-4.13,6.14,6.14,0,0,1,.66-1.23c.11-.17.22-.34.32-.52s.27-.44.41-.66l.2-.32v-.19a3.64,3.64,0,0,0-1.51-1.09l-.27-.13a2.11,2.11,0,0,1-1.06-1,7.08,7.08,0,0,0-.75-1.14l-.31-.42.1-.12c.14-.16.28-.33.43-.49s.56-.53.85-.78a6,6,0,0,0,1.89-3.17,7.34,7.34,0,0,1,1-2.35,1.78,1.78,0,0,0,.24-.42,19.57,19.57,0,0,1,2.36-4.46,1.67,1.67,0,0,0,.28-.58.81.81,0,0,0-.12-.67.43.43,0,0,0-.31-.1.72.72,0,0,0-.41.11,7.1,7.1,0,0,0-.79.74l-3.32,3.45c-.15.16-.32.3-.49.45l-.18.16-.66-.44a13.46,13.46,0,0,1-1.52-1.09c-2.1-1.82-4.17-3.66-6.27-5.53l-2.26-2v-.9c0-.79,0-1.58,0-2.37a2.28,2.28,0,0,0-.55-1.58c-.27-.33-.53-.68-.78-1-.38-.51-.77-1-1.2-1.52a5.2,5.2,0,0,1-1.32-2.81,4.39,4.39,0,0,1,1.34-1.43l1-.79,2.21-1.77a3.37,3.37,0,0,0,1.24-1.88,5.74,5.74,0,0,1,1.38-2.59,8.72,8.72,0,0,0,1.08-1.56l.31-.53a10.7,10.7,0,0,1,1.74-2.09,6.07,6.07,0,0,0,1.44-1.81v-.14c-.62-1.39-1.33-2.78-2-4.13-.89-1.75-1.81-3.55-2.6-5.45,1.52-1.41,3.06-2.79,4.6-4.15,2.75-2.45,5.6-5,8.19-7.67a1.56,1.56,0,0,1,.79.43,2.08,2.08,0,0,0,.92.51l.14,0,.15-.11a3.05,3.05,0,0,0,.45-.38l4.12-4.55.75-.8.27-.28a9.54,9.54,0,0,1,1.64,1.53,13.13,13.13,0,0,0,1.12,1.12,14.09,14.09,0,0,1,1.11,1.1,10.52,10.52,0,0,0,1.63,1.51l.14,0a2.59,2.59,0,0,0,1.29-.92l4.88-5.22c.15-.16.31-.3.5-.46l.19-.17c.91.71,1.76,1.51,2.58,2.28a36.89,36.89,0,0,0,2.84,2.48l.17,0a7.44,7.44,0,0,0,2-1.6,10.53,10.53,0,0,1,1.15-1.07c.73-.55,1.42-1.17,2.09-1.77l.75-.67.24.55.18.1.18,0a1.19,1.19,0,0,0,.51-.13c.61-.37,1.22-.76,1.82-1.15l1-.65.84-.5.36-.21.12,0a1.84,1.84,0,0,1,.32.15,14.34,14.34,0,0,0,6.27,2l.25,0a1.09,1.09,0,0,0,1-.59l.34-.61,3.92-.7a8.4,8.4,0,0,0,3.61,5.46,3.36,3.36,0,0,1-.67.76c-.14.13-.28.25-.41.39q-2.46,2.7-4.94,5.37c-.77.82-1.54,1.64-2.32,2.45l-1.2,1.26a5.61,5.61,0,0,0-.49.57,1.12,1.12,0,0,0-.18.48,4.46,4.46,0,0,0,1.18,2.29,13.69,13.69,0,0,1,3.13,2.57c.38.38.76.76,1.16,1.12l-1,2.91a2.19,2.19,0,0,0,.89,1.16,3.31,3.31,0,0,1,.86.9l-.09.15c-.06.23-.13.49-.21.74l-.29.9c-.31.95-.62,1.89-1,2.82a9.71,9.71,0,0,0-.67,3.17c0,1-.07,2-.12,3l-.05,1.25a1.56,1.56,0,0,0,1.15.66,1.72,1.72,0,0,1,.63.2H602l8.26-6.47a1.25,1.25,0,0,1,1,.51l-.19.28a3.94,3.94,0,0,1-.6.64,21.07,21.07,0,0,0-3.85,4.29c-.4.54-.8,1.07-1.21,1.59a3.44,3.44,0,0,0-.5,1.09l-.1.28a2.68,2.68,0,0,0-.11.75,5.82,5.82,0,0,1-1.55,3.59,14.22,14.22,0,0,0-1,1.29l-.36.52,0,.14a1.61,1.61,0,0,0,.81,1l.2.13c.24.17.49.33.75.5a5.41,5.41,0,0,1,1.43,1.13,6.48,6.48,0,0,1,.86,1.78c.1.28.2.56.32.82a2.17,2.17,0,0,1,.1.31,1.35,1.35,0,0,0,1.35,1.1l.47,0a3.46,3.46,0,0,1,1.44.26l0,.33c0,.29.09.58.12.87l.06.54c.15,1.37.29,2.73.41,4.1a3.27,3.27,0,0,1-.09,1.23l-.25.81c-.53,1.75-1.08,3.56-1.72,5.29a9.34,9.34,0,0,1-1.52,2.68l-.27-1c-.25-.91-.49-1.76-.71-2.63s-.33-1.5-.47-2.26l-.23-1.17c-.17-.86-.34-1.71-.46-2.58a22.37,22.37,0,0,0-.81-3.88c-.19-.58-.33-1.17-.46-1.77-.08-.35-.16-.7-.25-1.05a5.88,5.88,0,0,0-.23-.66l-.12-.32-.18-.11A2.16,2.16,0,0,0,601,243c-.1.11-.2.22-.31.32-.3.27-.58.56-.86.86l-.27.28-5.69-4.89-.14,0a2.25,2.25,0,0,0-1.19.82c-.1.11-.19.22-.3.31l-.39.37a4.92,4.92,0,0,1-1.87,1.32,2.48,2.48,0,0,0-.84.57l-.26.23a2.18,2.18,0,0,1-1.5.66l-.13.12a1.49,1.49,0,0,1-.72,1,1.53,1.53,0,0,0-.52.4,5.17,5.17,0,0,1-3.12,1.82,7.18,7.18,0,0,0-3.51,2.13c-.6.63-1.23,1.23-1.86,1.84-.87.83-1.76,1.69-2.57,2.62a29.36,29.36,0,0,1-3.9,3.5l-.79.63c-.33.27-.65.56-1,.85l-.59.54a11.08,11.08,0,0,1-2.23,1.73,7,7,0,0,0-1.55,1.28l-.46.45a5.22,5.22,0,0,0-.54.63l-.13.16-.71-.59h-.22l-.72.69c-.53.51-1.06,1-1.57,1.53q-1.66,1.71-3.31,3.43l-2.57,2.67c-.68.7-1.36,1.39-2,2.08l-1,1-.16.17c-.08.08-.16.17-.24.25A33.68,33.68,0,0,1,544.8,278.6Z" transform="translate(-358.73 -166.52)"/><path class="cls-1" d="M500.21,308.81a8.7,8.7,0,0,1-2.56-.4l-.2-.06a5.13,5.13,0,0,0-1.56-.31h-.15a2.71,2.71,0,0,1-.81-.16l-.29-.08c-.1-.32,0-.53.36-.73a6.41,6.41,0,0,0,2.11-2.29l.31-.47a2,2,0,0,0,.23-.42,1.44,1.44,0,0,0-.06-1.3,1,1,0,0,0-.85-.39h-.21l-.43,0a3.78,3.78,0,0,1-2.41-.93,7.61,7.61,0,0,0-2.4-1.18.61.61,0,1,1-.21-1.13l.31-.18c.13-.09.28-.16.42-.23l.35-.18a1.17,1.17,0,0,0,.61-.7,1.1,1.1,0,0,0-.2-.86,3,3,0,0,0-.37-.46l-.2-.23-.21-.27H492a5,5,0,0,0,1-.09,1,1,0,0,0,.56-.6.73.73,0,0,0-.29-.67,7.21,7.21,0,0,0-1-.59l-.5-.23a4.82,4.82,0,0,1-1.18-.65l.43-.68c.38-.61.74-1.18,1.16-1.73a6.93,6.93,0,0,0,1.1-2.75l.1-.42a1.83,1.83,0,0,0-.28-1.38,4.66,4.66,0,0,1-.42-2.37,1.15,1.15,0,0,1,.17-.58l.1-.2.16,0,.57.14a2.45,2.45,0,0,0,2.06-.51,1.13,1.13,0,0,0,.23-1.54l-.1-.14c-.33-.47-.67-.95-1-1.39a6.4,6.4,0,0,0-3.24-2.3,3.07,3.07,0,0,1-.78-.29c-.63-.37-.88-.73-.82-1.22a3,3,0,0,0-.73-2.43,2.15,2.15,0,0,1-.3-1.95,19.85,19.85,0,0,0,.29-4.14v-1a2.52,2.52,0,0,0,0-.71,5.45,5.45,0,0,1,0-2.1,2.38,2.38,0,0,0-1.18-2.52c-.5-.3-1-.64-1.44-1l-.11-.08a5.5,5.5,0,0,1-.75-.64.83.83,0,0,1-.15-1l.72-1.46v-.14c0-.09-.07-.18-.1-.27a2,2,0,0,0-.27-.58,4.62,4.62,0,0,1-.68-3.11v-.14a1,1,0,0,1,.67-1c1.17-.57,2.43-1.18,3.66-1.85l1-.53c1.79-1,3.64-2,5.4-3.06s3.7-2.32,5.54-3.5c1.32-.85,2.64-1.69,4-2.52a27.28,27.28,0,0,0,3.64-2.9l.8-.71c2.3-2,4.56-4.06,6.83-6.11l.57-.52,5.3-4.8,11.26-10.22,5.86-5.29c.14-.13.29-.24.46-.38l.15-.12,0,0a1,1,0,0,1,.2.24q2,4,4,8a3,3,0,0,1,.14.36l.06.16-.15.2a3.55,3.55,0,0,1-.49.57,15.32,15.32,0,0,0-2.54,3.06c-.17.25-.33.5-.48.75a11.17,11.17,0,0,1-1.26,1.74,3.27,3.27,0,0,0-.71,1.51,3.64,3.64,0,0,1-1.48,2.29c-1.08.81-2,1.5-2.75,2.18-.48.42-.93.87-1.38,1.32l-.6.6,0,.17a9.15,9.15,0,0,0,1.95,3.87,10.64,10.64,0,0,1,1,1.25c.2.28.4.56.61.82a2.07,2.07,0,0,1,.52,1.49c0,.44,0,.88,0,1.33s0,.77,0,1.16a1.93,1.93,0,0,0,.73,1.66l1.33,1.12c1.8,1.51,3.66,3.08,5.42,4.69.65.59,1.34,1.13,2,1.66l1.16.92a7.15,7.15,0,0,0,.74.51l.37.24.21,0,2.36-2.34a1.17,1.17,0,0,1-.06.29c-.19.49-.4,1-.63,1.46l-.21.42a10.86,10.86,0,0,0-1.13,3,2.5,2.5,0,0,1-.8,1.41l-.85.8c-.32.3-.64.6-1,.9l-.12.1a1.53,1.53,0,0,0-.64,1l0,.13.29.37c.24.31.49.64.77.94a1.74,1.74,0,0,1,.31.56,1.49,1.49,0,0,0,.69.9c.48.23.94.49,1.4.76a2.86,2.86,0,0,1,.37.27l.1.08a13.63,13.63,0,0,0-1.48,2.75l-.36.8c-.53,1.14-1.17,2.26-1.79,3.34-.29.51-.58,1-.86,1.53a1.49,1.49,0,0,1-.92.71,1.63,1.63,0,0,0-1.28,1.93,2.74,2.74,0,0,1-.08,1.09,2,2,0,0,0,.32,1.8,7.63,7.63,0,0,1,1,2.65c.5,2.18,1.06,4.34,1.61,6.51l.4,1.57c.08.32.19.63.31,1l.14.41c-1.91,1.83-3.93,3.61-5.89,5.34-1.28,1.13-2.56,2.26-3.84,3.43l-.17-.14a3.79,3.79,0,0,1-.49-.42c-.26-.28-.51-.57-.76-.86l-.59-.68a4.7,4.7,0,0,0-.76-.74c-1-.72-2.06-1.44-3.09-2.15l-1.1-.76-.15,0a1.92,1.92,0,0,0-1.26,1.4l-.23.84a4.47,4.47,0,0,1-.81,1.62c-.38.48-.72,1-1.05,1.5l-.53.79c-.19.27-.39.54-.6.81l-.23.31a3.33,3.33,0,0,0-.7.1,3.19,3.19,0,0,1-.68.1l-.28,0,.06-.1a2.88,2.88,0,0,1,.29-.46,3.13,3.13,0,0,1,.32-.32,3.05,3.05,0,0,0,.4-.41,1.68,1.68,0,0,0-.35-1.94,1.79,1.79,0,0,0-1.25-.7.7.7,0,0,0-.36.09,3.53,3.53,0,0,0-1.85,1.93c0,.11-.06.23-.08.34a2.41,2.41,0,0,1-.14.48l-.08.17a4.36,4.36,0,0,1-.59,1.06,4.55,4.55,0,0,0-1.3,2.5,1.13,1.13,0,0,1-.12.33l0,.09-.1,0a.84.84,0,0,1-.33-.16,7.06,7.06,0,0,0-1.82-1.53,2.1,2.1,0,0,1-.6-.53,2.67,2.67,0,0,0-1.89-.93l-.28,0a1.4,1.4,0,0,0-1,.4,1.49,1.49,0,0,0-.41,1.09,2.27,2.27,0,0,0,.06.46,1.93,1.93,0,0,1,.06.4,8.55,8.55,0,0,1-.11,1.56,1,1,0,0,1-.26.4l-.13.15a4.22,4.22,0,0,1-.46-.14,2.64,2.64,0,0,0-.82-.18,1.17,1.17,0,0,0-.6.16c-.37.22-.74.45-1.12.7l-.43.27-1.3-.8h-.16a4.15,4.15,0,0,0-2.28,3.78l-.19.07a1.19,1.19,0,0,1-.38.11,2.64,2.64,0,0,0-.73-.1,5.12,5.12,0,0,0-1,.14l-.26.05A8.38,8.38,0,0,1,500.21,308.81Z" transform="translate(-358.73 -166.52)"/><path class="cls-1" d="M656.27,389.73a1.43,1.43,0,0,1-.51-.1s-.31-1-.41-1.26c0,0-1.59-5.23-2-6.57a5.81,5.81,0,0,0-.95-2,1.9,1.9,0,0,1-.37-.71,18.26,18.26,0,0,0-.83-2.37,14.92,14.92,0,0,1-.94-2.87,12.41,12.41,0,0,0-1.34-3.59,4.69,4.69,0,0,1-.54-2.45c0-.72,0-1.43,0-2.15,0-.41,0-.81,0-1.22a1.87,1.87,0,0,1,.06-.36l0-.13a20.66,20.66,0,0,1,2.87-.54c.68-.1,1.36-.19,2-.34,1.15-.24,2.28-.54,3.45-.84l1.6-.41.12-.19c0-.1,0-.2,0-.3a2.29,2.29,0,0,0-.14-.59c-.14-.31-.3-.61-.46-.91l-.15-.27a2,2,0,0,1,1.13-.79l.32-.13c.95-.42,1-.5.92-1.52a11,11,0,0,1,.07-1.93,1.86,1.86,0,0,1,.85-1.46,1.77,1.77,0,0,0,.82-1.64,1.51,1.51,0,0,0-.69-1.38,5.13,5.13,0,0,1-1.5-1.48,2,2,0,0,1-.25-1.68.86.86,0,0,1,.64-.69l.42-.09a1.69,1.69,0,0,0,1.27-1.11,1.83,1.83,0,0,0-.48-1.79,2.87,2.87,0,0,0-.37-.33,3.08,3.08,0,0,1-.29-.26c-.19-.2-.35-.35-.36-.47a1.63,1.63,0,0,0-.64-1.06l-.1-.1c-.35-.34-.39-.6-.12-1a9.28,9.28,0,0,0,1.33-2.63c0-.07.14-.14.27-.23l.1-.07,0,.1a2.28,2.28,0,0,0,.27.46l.18.23a5.59,5.59,0,0,0,.91,1,1.76,1.76,0,0,0,1.08.39,1.73,1.73,0,0,0,.89-.26,4.63,4.63,0,0,1,1.58-.69V339a2.37,2.37,0,0,0,.1.5,1.13,1.13,0,0,0,1.06.8,1.19,1.19,0,0,0,.72-.26,1.6,1.6,0,0,0,.34-.35,1.25,1.25,0,0,1,1.13-.55,3.23,3.23,0,0,1,.48,0c0,.16.27.34.48.52a2,2,0,0,1,.76.92.87.87,0,0,0,.87.51l1.81.11.14-.07a2.31,2.31,0,0,0,.36-2,.87.87,0,0,0-.08-.2l-.28-.66a6.19,6.19,0,0,1-.46-1.3,4.05,4.05,0,0,1,0-1,4.77,4.77,0,0,0-.12-1.79c0-.15-.06-.3-.09-.45l-.09-.55.57-.45c.47-.36.91-.71,1.33-1.09a3.49,3.49,0,0,1,1.8-.7l.36-.07a2.15,2.15,0,0,0,1.42-.66,1.73,1.73,0,0,1,1.07-.44,6,6,0,0,0,4.87-2.79,2.15,2.15,0,0,1,1.06-.76,3.14,3.14,0,0,0,1-.57,3.52,3.52,0,0,1,2-.91c.94-.16,1.86-.38,2.79-.59l1.5-.34c.31-.07.63-.11,1-.16l.37-.06.16.24c.14.2.26.38.37.57l1.16,2c.83,1.44,1.65,2.88,2.5,4.31a2,2,0,0,1,.29,1.54c-.14.71-.23,1.43-.33,2.15l-.12.9a33.2,33.2,0,0,0,2.57,3.08c.73.8,1.48,1.63,2.16,2.48l-.68,1.17v.18l1.26,1.66,0,.09a.9.9,0,0,1-.08.23,1.21,1.21,0,0,0,.1,1.39,21.86,21.86,0,0,1,2.23,4.71c.29.81.52,1.65.74,2.47.09.34.18.68.28,1,0,.12.06.24.09.36a4.87,4.87,0,0,0,.12.49.88.88,0,0,0,.85.71,1.5,1.5,0,0,0,.51-.1,10,10,0,0,0,1-.39,9,9,0,0,1,4-.86,13.83,13.83,0,0,1,2.05.16l1.81,4.4.75.54,1.26.85c.25.17.49.33.75.48a4,4,0,0,1,1.65,1.89,7.28,7.28,0,0,1-1.1.84,7.9,7.9,0,0,0-1.33,1v.24a6,6,0,0,0,2.87,1.61c1.07.17,1.07.17,1.78,1.19l-1.49,1a.71.71,0,0,0-.13.12,14.34,14.34,0,0,0-2.49,1.94L719,371a10.27,10.27,0,0,1-1.32.91l-.84.53a.51.51,0,0,0-.12.34c0,.29-.07.52-.35.63a.72.72,0,0,0-.36.44,5.21,5.21,0,0,1-1.19,1.92c-.19.22-.38.45-.55.68l-.44.57c-.25.31-.49.62-.71.95a5.88,5.88,0,0,1-1.75,1.84.42.42,0,0,0-.17.14,3.09,3.09,0,0,1-2,1.18l-.26.08c-.75.23-1.48.51-2.22.78l-1.17.43a4.32,4.32,0,0,1-1.51.36,2.42,2.42,0,0,1-.42,0l-.29,0a4.3,4.3,0,0,0-1.13.21l-.5.13-.2,0a6.56,6.56,0,0,0-3.18,1.35l-.09.66-.05.74a5.22,5.22,0,0,1-2.25.32h-.24l-1.43-1.63-.19,0a11.1,11.1,0,0,0-2.22,1.35l-.17.12a7.43,7.43,0,0,0-2.81,3.21c-.1.25-.16.38-.38.38h0c0-.24-.06-.49-.08-.75a3.29,3.29,0,0,0-1-2.52,5.19,5.19,0,0,1-2.24-.93,3,3,0,0,0-1.82-.6,3.79,3.79,0,0,0-.77.08,3.56,3.56,0,0,0-1.3-.89,2.46,2.46,0,0,1-1.55-1.43l-.19-.11-.18,0a.76.76,0,0,0-.45.13,5.27,5.27,0,0,1-3.17,1h-.15a1.53,1.53,0,0,0-.77.18,1.07,1.07,0,0,1-.63.2,2.36,2.36,0,0,1-.6-.1,1.44,1.44,0,0,0-.38-.06c-.46,0-.67.34-.83.71a1.27,1.27,0,0,0-.07.25.89.89,0,0,1,0,.18.57.57,0,0,1-.09.11l-.06.07-1-.28-1.34.61-.21-.13a2.36,2.36,0,0,0-.75-.36c-1.13-.25-1.62-1-1.66-2.43a2.51,2.51,0,0,0,0-.31c-.07-.49-.18-1-.61-1a1.55,1.55,0,0,0-.74.29l-.25.15c-.82.49-1.66,1-2.53,1.44a2.57,2.57,0,0,0-1.14,1,23.87,23.87,0,0,1-4.38,5l-.14.13A1.47,1.47,0,0,1,656.27,389.73Z" transform="translate(-358.73 -166.52)"/><path class="cls-1" d="M542.47,304.75a34.11,34.11,0,0,1-4.86-5.24l.15-.17a5.55,5.55,0,0,1,.45-.48l3.22-2.91,4.69-4.25.41-.36a5,5,0,0,0,1.11-1.16l-.49-2.21c-.52-2.13-1-4.23-1.54-6.32-.11-.45-.24-.89-.37-1.35l-.16-.55.14-.09.51-.31,3.69-2.08a15,15,0,0,0,3.5-2.7q3.4-3.56,6.83-7.09l1.8-1.86c.23-.24.47-.47.7-.69l.31-.3a.49.49,0,0,1,.19.17.64.64,0,0,0,.24.21.72.72,0,0,0,.28.06h0a.79.79,0,0,0,.55-.26l.63-.62c.48-.48,1-1,1.45-1.42l.24-.24a3,3,0,0,1,1.57-1,1.35,1.35,0,0,0,.69-.52,34.71,34.71,0,0,1,4.39-3.95,33.78,33.78,0,0,0,3.51-3.33c1.32-1.38,2.74-2.7,4.13-4l.93-.86a2.3,2.3,0,0,1,.95-.49,10.34,10.34,0,0,0,5.19-3,10.06,10.06,0,0,0,1.66-1.2,8.11,8.11,0,0,1,2.23-1.46,1.93,1.93,0,0,0,.66-.5l.18-.17,1.07-1,.35-.34c1.72,1.38,3.49,2.9,5.71,4.92l.17,0a3.42,3.42,0,0,0,1.34-1.07,3.46,3.46,0,0,1,1-.87l.06,0c.09.38.23.83.37,1.27a18.32,18.32,0,0,1,1,4.12,36,36,0,0,0,1,5.44c.15.63.3,1.25.44,1.88.25,1.14.52,2.27.8,3.4l.1.44c.06.25.14.5.23.79l.13.43.26.09.8-.57.07,0,.67,1.62a36.59,36.59,0,0,1-4.41,5l-4.69,4.39-4.7,4.39q-1.44,1.36-2.86,2.73c-1.23,1.18-2.45,2.35-3.7,3.51a196.66,196.66,0,0,1-14.88,12.89,1.27,1.27,0,0,1-.23.12l0,0a2.1,2.1,0,0,1-.37-1.12,3.81,3.81,0,0,0-.16-.77,11.28,11.28,0,0,1-.38-1.43c0-.21-.09-.41-.14-.6a.74.74,0,0,0-.52-.26.89.89,0,0,0-.6.29,21.35,21.35,0,0,1-3.08,2.39c-.61.41-1.21.83-1.8,1.28-.79.61-1.56,1.24-2.32,1.88l-1.19,1a3.35,3.35,0,0,1-.31.21l-.11.07-.16-.09-.49-.3a18.76,18.76,0,0,0-6.34-2.67,3.06,3.06,0,0,0-.41-.06l-.32,0a2,2,0,0,0-.41,0,1.84,1.84,0,0,0-1.31.6c-2.14,2.05-4.32,4.08-6.5,6.1l-.85.79c-.46.43-.93.84-1.43,1.27Z" transform="translate(-358.73 -166.52)"/><path class="cls-1" d="M485.3,250.55c-.15-.06-.18-.16-.21-.34a1.14,1.14,0,0,0-.08-.27,2.83,2.83,0,0,0-2.61-1.76,3.27,3.27,0,0,0-1.09.19l-1.22.42-.42.14c-.13-.09-.11-.16-.06-.31a1.41,1.41,0,0,0,0-.15,1.6,1.6,0,0,0-.28-1.64l.2-.13.73-.48a3.54,3.54,0,0,0,1.35-1.43c.18-.35.39-.7.6-1l.28-.47a1.78,1.78,0,0,0,.09-2,1.21,1.21,0,0,1-.2-.6,3.93,3.93,0,0,0-.71-2.12c0-.09,0-.15,0-.2.2-.1.39-.21.58-.33a3.44,3.44,0,0,1,1.54-.61,5.07,5.07,0,0,0,1.54-.46l.31-.13a1.38,1.38,0,0,0,.59-.55,4.93,4.93,0,0,0,.28-.5,4,4,0,0,1,.29-.51,2.87,2.87,0,0,1,.71-.79,9.33,9.33,0,0,0,1.82-1.51,3,3,0,0,1,.76-.58l.24-.13a7,7,0,0,0,2.38-1.71,1.69,1.69,0,0,1,.6-.38l.37-.19.08-.14c0-.81.14-1.52.88-1.92a3,3,0,0,0,2.07.83,3.69,3.69,0,0,0,.78-.09,2.29,2.29,0,0,1,.5,0h.49a6.1,6.1,0,0,0,3.49-1.17,1.65,1.65,0,0,0,.78-.81,3.19,3.19,0,0,1,.8-1.28,3,3,0,0,0,.91-1.73c0-.49.05-1,.06-1.47a1.85,1.85,0,0,1,.5-1.34,4.85,4.85,0,0,0,1-1.5,4.34,4.34,0,0,1,2.43-2.21l.4-.17a2.42,2.42,0,0,1,1-.25,2.32,2.32,0,0,1,1.61.72c.19.18.4.34.61.51l.29.24h.19l.26-.14a1.54,1.54,0,0,0,.46-.31l.53-.55a8.92,8.92,0,0,0,1.93-2.55,4.6,4.6,0,0,1,.73-1.19,1.78,1.78,0,0,1,1.37-.71,2.06,2.06,0,0,1,.53.08,2.6,2.6,0,0,0,.68.08,8,8,0,0,0,.9-.07l.21,0a2,2,0,0,0,.86-.39c.87-.61,1-1.09.63-2.31l.36-.66c.31-.67.62-1.33,1-2a1.48,1.48,0,0,1,.58-.66,3.08,3.08,0,0,0,1.59-2.07h.72a1.28,1.28,0,0,0,1-.66,4.49,4.49,0,0,1,2-2,1.19,1.19,0,0,0,.43-.35,1.39,1.39,0,0,1,.94-.6,2,2,0,0,0,1.33.74,3.13,3.13,0,0,0,1.08-.27,4.4,4.4,0,0,0,2.12-1.64,2.31,2.31,0,0,1,1.27-1,2.19,2.19,0,0,0,1.28-.84,1,1,0,0,1,.47-.38,3.22,3.22,0,0,0,1.76-1.62l1.21-2a5.11,5.11,0,0,1,2.45-2.05,6,6,0,0,0,2.95-2.17.85.85,0,0,1,.25-.27,10,10,0,0,0,2.18-2.09,11.92,11.92,0,0,1,1.67-1.71,15,15,0,0,1,1.46-2.12c.36-.46.72-.92,1-1.4l0-.13a1.28,1.28,0,0,0-1.22-1,3.25,3.25,0,0,1,.27-.32q.66-.67,1.35-1.32l.2-.19a10.42,10.42,0,0,1,.87-.77,20.52,20.52,0,0,0,3.29-3.13,4.08,4.08,0,0,1,1-.75l.27-.17a1.62,1.62,0,0,0,.81-.93,1.64,1.64,0,0,1,.53-.72c.53-.45,1.08-.88,1.62-1.31l.88-.7a3.77,3.77,0,0,0,.65-.6c.44-.58.87-1.16,1.33-1.78l.49-.66a2.63,2.63,0,0,0,.46,0,3.3,3.3,0,0,0,1.34-.33,1.47,1.47,0,0,0,.61-.6c.14-.21.26-.39.46-.45.06.11,0,.17-.06.28l-1.86,2.62c-1.92,2.71-3.84,5.43-5.79,8.11-.74,1-1.58,2-2.4,2.92l-.58.66c-.42.48-.85.94-1.29,1.41l-.88.94a1.54,1.54,0,0,0-.23.38l-.11.22,0,.18.22.28a6.53,6.53,0,0,0,.52.62l1.64,1.64,1.36,1.35c.2.2.39.42.59.65l.22.25-.69.74c-.55.59-1.09,1.16-1.64,1.72l-1.08,1.1c-1.75,1.78-3.51,3.57-5.3,5.32-1.22,1.19-2.5,2.35-3.75,3.47l-.76.69-7.93,7.15-7.05,6.35q-4.67,4.21-9.33,8.42l-5.11,4.66L512,233c-1.78,1.62-3.53,3.2-5.34,4.75a20.83,20.83,0,0,1-2.35,1.68l-2,1.27c-2.69,1.73-5.48,3.51-8.26,5.2A74.36,74.36,0,0,1,485.3,250.55Z" transform="translate(-358.73 -166.52)"/></svg>